<?xml version="1.0" encoding="UTF-8"?>
<svg width="28px" height="28px" viewBox="0 0 28 28" version="1.1" xmlns="http://www.w3.org/2000/svg" xmlns:xlink="http://www.w3.org/1999/xlink">
    <!-- Generator: Sketch 54.1 (76490) - https://sketchapp.com -->
    <title>Rectangle</title>
    <desc>Created with Sketch.</desc>
    <defs>
        <path d="M9,8 C9.55228475,8 10,7.55228475 10,7 C10,6.44771525 9.55228475,6 9,6 C8.44771525,6 8,6.44771525 8,7 C8,7.55228475 8.44771525,8 9,8 Z M27,22.14 L27,18 C27,16.8954305 26.1045695,16 25,16 L17,16 L17,12 L26,12 C27.1045695,12 28,11.1045695 28,10 L28,4 C28,2.8954305 27.1045695,2 26,2 L6,2 C4.8954305,2 4,2.8954305 4,4 L4,10 C4,11.1045695 4.8954305,12 6,12 L15,12 L15,16 L7,16 C5.8954305,16 5,16.8954305 5,18 L5,22.14 C3.04969328,22.643567 1.77807479,24.5187867 2.03188121,26.5170005 C2.28568764,28.5152143 3.98573188,30.0129833 6,30.0129833 C8.01426812,30.0129833 9.71431236,28.5152143 9.96811879,26.5170005 C10.2219252,24.5187867 8.95030672,22.643567 7,22.14 L7,18 L15,18 L15,22 L12,22 L12,30 L20,30 L20,22 L17,22 L17,18 L25,18 L25,22.14 C23.0496933,22.643567 21.7780748,24.5187867 22.0318812,26.5170005 C22.2856876,28.5152143 23.9857319,30.0129833 26,30.0129833 C28.0142681,30.0129833 29.7143124,28.5152143 29.9681188,26.5170005 C30.2219252,24.5187867 28.9503067,22.643567 27,22.14 Z M6,4 L26,4 L26,10 L6,10 L6,4 Z M8,26 C8,27.1045695 7.1045695,28 6,28 C4.8954305,28 4,27.1045695 4,26 C4,24.8954305 4.8954305,24 6,24 C7.1045695,24 8,24.8954305 8,26 Z M18,28 L14,28 L14,24 L18,24 L18,28 Z M26,28 C24.8954305,28 24,27.1045695 24,26 C24,24.8954305 24.8954305,24 26,24 C27.1045695,24 28,24.8954305 28,26 C28,27.1045695 27.1045695,28 26,28 Z" id="path-1"></path>
        <linearGradient x1="16.4636628%" y1="11.3683176%" x2="87.7824133%" y2="100%" id="linearGradient-3">
            <stop stop-color="#A970FF" offset="0%"></stop>
            <stop stop-color="#418CFF" offset="100%"></stop>
        </linearGradient>
    </defs>
    <g id="Scratch-6" stroke="none" stroke-width="1" fill="none" fill-rule="evenodd">
        <g id="Nodes-//-Overview-Copy-14" transform="translate(-34.000000, -165.000000)">
            <g id="Group-3-Copy-6" transform="translate(16.000000, 139.000000)">
                <g id="Rectangle" transform="translate(16.000000, 24.000000)">
                    <g id="icon/data/structured/32">
                        <mask id="mask-2" fill="white">
                            <use xlink:href="#path-1"></use>
                        </mask>
                        <use id="architecture-icon-color" fill="#FFFFFF" fill-rule="evenodd" xlink:href="#path-1"></use>
                    </g>
                    <rect fill="url(#linearGradient-3)" x="-8" y="-8" width="45" height="45"></rect>
                </g>
            </g>
        </g>
    </g>
</svg>
