<?xml version="1.0" encoding="UTF-8"?>
<svg width="22px" height="22px" viewBox="0 0 22 22" version="1.1" xmlns="http://www.w3.org/2000/svg" xmlns:xlink="http://www.w3.org/1999/xlink">
    <!-- Generator: Sketch 64 (93537) - https://sketch.com -->
    <title>Rectangle Copy 5</title>
    <desc>Created with Sketch.</desc>
    <defs>
        <linearGradient x1="18.8528963%" y1="-5.22330199%" x2="84.4994313%" y2="104.821349%" id="linearGradient-1">
            <stop stop-color="#9675FF" offset="0%"></stop>
            <stop stop-color="#5387FF" offset="100%"></stop>
        </linearGradient>
        <path d="M8,12 C9.1045695,12 10,12.8954305 10,14 L10,14 L10,20 C10,21.1045695 9.1045695,22 8,22 L8,22 L2,22 C0.8954305,22 0,21.1045695 0,20 L0,20 L0,14 C0,12.8954305 0.8954305,12 2,12 L2,12 Z M8,14 L2,14 L2,20 L8,20 L8,14 Z M20,0 C21.1045695,0 22,0.8954305 22,2 L22,2 L22,16 C22,17.1045695 21.1045695,18 20,18 L20,18 L14,18 L14,16 L20,16 L20,2 L6,2 L6,8 L4,8 L4,2 C4,0.8954305 4.8954305,0 6,0 L6,0 Z" id="path-2"></path>
    </defs>
    <g id="Get-started" stroke="none" stroke-width="1" fill="none" fill-rule="evenodd">
        <g id="Rectangle-Copy-5">
            <mask id="mask-3" fill="white">
                <use xlink:href="#path-2"></use>
            </mask>
            <use id="Combined-Shape" fill="url(#linearGradient-1)" xlink:href="#path-2"></use>
        </g>
    </g>
</svg>