<?xml version="1.0" encoding="UTF-8"?>
<svg width="28px" height="28px" viewBox="0 0 28 28" version="1.1" xmlns="http://www.w3.org/2000/svg" xmlns:xlink="http://www.w3.org/1999/xlink">
    <!-- Generator: Sketch 64 (93537) - https://sketch.com -->
    <title>Rectangle Copy 2</title>
    <desc>Created with Sketch.</desc>
    <defs>
        <linearGradient x1="18.8528963%" y1="-5.22162386%" x2="84.4994313%" y2="104.819683%" id="linearGradient-1">
            <stop stop-color="#9675FF" offset="0%"></stop>
            <stop stop-color="#5387FF" offset="100%"></stop>
        </linearGradient>
        <path d="M28,26 L28,28 L0,28 L0,26 L28,26 Z M13.66,0.06 C13.8797076,-0.0194327525 14.1202924,-0.0194327525 14.34,0.06 L14.34,0.06 L25.34,4.06 C25.7359474,4.2031502 26,4.57896992 26,5 L26,5 L26,8 C26,8.55228475 25.5522847,9 25,9 L25,9 L24,9 L24,22 L26,22 L26,24 L2,24 L2,22 L4,22 L4,9 L3,9 C2.44771525,9 2,8.55228475 2,8 L2,8 L2,5 C2,4.57896992 2.26405256,4.2031502 2.66,4.06 L2.66,4.06 Z M16,9 L12,9 L12,22 L16,22 L16,9 Z M10,9 L6,9 L6,22 L10,22 L10,9 Z M22,9 L18,9 L18,22 L22,22 L22,9 Z M14,2.06 L4,5.7 L4,7 L24,7 L24,5.7 L14,2.06 Z" id="path-2"></path>
    </defs>
    <g id="Get-started" stroke="none" stroke-width="1" fill="none" fill-rule="evenodd">
        <g id="Rectangle-Copy-2">
            <mask id="mask-3" fill="white">
                <use xlink:href="#path-2"></use>
            </mask>
            <use id="Combined-Shape" fill="url(#linearGradient-1)" xlink:href="#path-2"></use>
        </g>
    </g>
</svg>