<?xml version="1.0" encoding="UTF-8"?>
<svg width="24px" height="28px" viewBox="0 0 24 28" version="1.1" xmlns="http://www.w3.org/2000/svg" xmlns:xlink="http://www.w3.org/1999/xlink">
    <!-- Generator: Sketch 64 (93537) - https://sketch.com -->
    <title>Rectangle Copy</title>
    <desc>Created with Sketch.</desc>
    <defs>
        <linearGradient x1="27.1164136%" y1="-5.22330199%" x2="75.346521%" y2="104.821349%" id="linearGradient-1">
            <stop stop-color="#9675FF" offset="0%"></stop>
            <stop stop-color="#5387FF" offset="100%"></stop>
        </linearGradient>
        <path d="M22,0 C23.1045695,0 24,0.8954305 24,2 L24,2 L24,26 C24,27.1045695 23.1045695,28 22,28 L22,28 L4,28 C2.8954305,28 2,27.1045695 2,26 L2,26 L2,22 L0,22 L0,20 L2,20 L2,15 L0,15 L0,13 L2,13 L2,8 L0,8 L0,6 L2,6 L2,2 C2,0.8954305 2.8954305,0 4,0 L4,0 Z M22,2 L4,2 L4,6 L6,6 L6,8 L4,8 L4,13 L6,13 L6,15 L4,15 L4,20 L6,20 L6,22 L4,22 L4,26 L22,26 L22,2 Z M18,20 L18,22 L10,22 L10,20 L18,20 Z M18,13 L18,15 L10,15 L10,13 L18,13 Z M18,6 L18,8 L10,8 L10,6 L18,6 Z" id="path-2"></path>
    </defs>
    <g id="Get-started" stroke="none" stroke-width="1" fill="none" fill-rule="evenodd">
        <g id="Rectangle-Copy">
            <mask id="mask-3" fill="white">
                <use xlink:href="#path-2"></use>
            </mask>
            <use id="Combined-Shape" fill="url(#linearGradient-1)" xlink:href="#path-2"></use>
        </g>
    </g>
</svg>