<?xml version="1.0" encoding="UTF-8"?>
<svg width="32px" height="20px" viewBox="0 0 32 20" version="1.1" xmlns="http://www.w3.org/2000/svg" xmlns:xlink="http://www.w3.org/1999/xlink">
    <!-- Generator: Sketch 64 (93537) - https://sketch.com -->
    <title>Rectangle Copy 6</title>
    <desc>Created with Sketch.</desc>
    <defs>
        <linearGradient x1="18.8528963%" y1="28.4283977%" x2="84.4994313%" y2="71.4145894%" id="linearGradient-1">
            <stop stop-color="#9675FF" offset="0%"></stop>
            <stop stop-color="#5387FF" offset="100%"></stop>
        </linearGradient>
        <path d="M22,0 C23.1045695,0 24,0.8954305 24,2 L24,18 C24,19.1045695 23.1045695,20 22,20 L10,20 C8.8954305,20 8,19.1045695 8,18 L8,2 C8,0.8954305 8.8954305,0 10,0 L22,0 Z M22,2 L10,2 L10,18 L22,18 L22,2 Z M4,2 C5.1045695,2 6,2.8954305 6,4 L6,16 C6,17.1045695 5.1045695,18 4,18 L0,18 L0,16 L4,16 L4,4 L0,4 L0,2 L4,2 Z M32,2 L32,4 L28,4 L28,16 L32,16 L32,18 L28,18 C26.8954305,18 26,17.1045695 26,16 L26,4 C26,2.8954305 26.8954305,2 28,2 L32,2 Z" id="path-2"></path>
    </defs>
    <g id="Get-started" stroke="none" stroke-width="1" fill="none" fill-rule="evenodd">
        <g id="Rectangle-Copy-6">
            <mask id="mask-3" fill="white">
                <use xlink:href="#path-2"></use>
            </mask>
            <use id="Combined-Shape" fill="url(#linearGradient-1)" xlink:href="#path-2"></use>
        </g>
    </g>
</svg>