<?xml version="1.0" encoding="UTF-8"?>
<svg width="30px" height="28px" viewBox="0 0 30 28" version="1.1" xmlns="http://www.w3.org/2000/svg" xmlns:xlink="http://www.w3.org/1999/xlink">
    <!-- Generator: Sketch 64 (93537) - https://sketch.com -->
    <title>Rectangle Copy 4</title>
    <desc>Created with Sketch.</desc>
    <defs>
        <linearGradient x1="18.8528963%" y1="1.89436805%" x2="84.4994313%" y2="97.7554861%" id="linearGradient-1">
            <stop stop-color="#9675FF" offset="0%"></stop>
            <stop stop-color="#5387FF" offset="100%"></stop>
        </linearGradient>
        <path d="M13,16 C16.8659932,16 20,19.1340068 20,23 L20,28 L18,28 L18,23 C18,20.2385763 15.7614237,18 13,18 L7,18 C4.23857625,18 2,20.2385763 2,23 L2,28 L0,28 L0,23 C0,19.1340068 3.13400675,16 7,16 L13,16 Z M26,8 L26,12 L30,12 L30,14 L26,14 L26,18 L24,18 L24,14 L20,14 L20,12 L24,12 L24,8 L26,8 Z M10,7.10542736e-15 C13.8659932,7.10542736e-15 17,3.13400675 17,7 C17,10.8659932 13.8659932,14 10,14 C6.13400675,14 3,10.8659932 3,7 C3,3.13400675 6.13400675,7.10542736e-15 10,7.10542736e-15 Z M10,2 C7.23857625,2 5,4.23857625 5,7 C5,9.76142375 7.23857625,12 10,12 C12.7614237,12 15,9.76142375 15,7 C15,4.23857625 12.7614237,2 10,2 Z" id="path-2"></path>
    </defs>
    <g id="Get-started" stroke="none" stroke-width="1" fill="none" fill-rule="evenodd">
        <g id="Rectangle-Copy-4">
            <mask id="mask-3" fill="white">
                <use xlink:href="#path-2"></use>
            </mask>
            <use id="Combined-Shape" fill="url(#linearGradient-1)" xlink:href="#path-2"></use>
        </g>
    </g>
</svg>