<svg xmlns="http://www.w3.org/2000/svg" xmlns:xlink="http://www.w3.org/1999/xlink" width="288.8" height="256.56" viewBox="0 0 288.8 256.56"><defs><radialGradient id="a45322cb-e42d-425e-aa89-df04824bb1c4" cx="149.2" cy="179.03" r="75.71" gradientUnits="userSpaceOnUse"><stop offset="0.2" stop-opacity="0.96"/><stop offset="1" stop-color="#fff"/></radialGradient><mask id="a1a1963b-177e-4fbf-9d1f-cb3e618f8ce2" x="73.49" y="103.32" width="151.42" height="151.42" maskUnits="userSpaceOnUse"><circle cx="149.2" cy="179.03" r="75.71" fill="url(#a45322cb-e42d-425e-aa89-df04824bb1c4)"/></mask><linearGradient id="f716439a-2c24-4136-a96a-5d6cc26daff5" x1="149.09" y1="218.45" x2="149.09" y2="103.66" gradientUnits="userSpaceOnUse"><stop offset="0" stop-color="#0064ff"/><stop offset="1" stop-color="#5fc8f1"/></linearGradient><linearGradient id="b3b507d0-60bb-4715-953c-945852b90faf" x1="96.5" y1="232.19" x2="201.67" y2="127.02" xlink:href="#f716439a-2c24-4136-a96a-5d6cc26daff5"/></defs><title>svgArtboard 30</title><g id="f3dbc5a5-d269-4fcf-b4c2-6afe93a8ccfd" data-name="—ÎÓÈ_1"><path d="M256,163.72c1.42.15,3,0,4.57-2.13,1.38-1.77,5.39-5.91,6-6.93a9.59,9.59,0,0,0,.79-5.25h0l-.22-4.72-5.56.26.18,3.75a10.84,10.84,0,0,1-1.11,5.31,57.05,57.05,0,0,1-2.83,5,19.41,19.41,0,0,1-3.67,4C254.38,163.43,255,163.6,256,163.72Z" fill="#e0e4ea"/><path d="M270,171.27c1.41.23,3,.1,4.66-1.9,1.47-1.71,5.66-5.66,6.29-6.65a9.64,9.64,0,0,0,1-5.21h0v-4.72h-5.56v3.75a10.7,10.7,0,0,1-1.36,5.25c-.73,1.3-1.74,3-3.06,4.88a19.19,19.19,0,0,1-3.86,3.83C268.33,170.91,268.92,171.11,270,171.27Z" fill="#e0e4ea"/><path d="M234.72,33.25l15.9,15,10.73-18.1c1.52-2.42,4-3.35,6.26-1.59a4.42,4.42,0,0,1,.86,6.16L256.16,52.24c-3,4.77-4.84,6-8.42,2.65S230.83,37,230.83,37Z" fill="#b9bfc7"/><path d="M231.15,36.7c-1.63-1.79-7.35-6.74-7.62-9.78s1.78-6.25,2.38-6.51,1.63-.53,1.93.6.87,4.88,2.1,6.2,1.1-.71,1.09-1.87c0-1.4,1.79-1.73,2.05.29s.13,6.53,1.49,7.78Z" fill="#e0e4ea"/><path d="M284,163.42h0a1.64,1.64,0,0,0,0-.25,39.19,39.19,0,0,1-1.18-4,2.72,2.72,0,0,0-.82-1.7,9.64,9.64,0,0,1-1,5.21c-.63,1-4.82,4.94-6.29,6.65-1.71,2-3.25,2.13-4.66,1.9-1-.16-1.63-.36-1.86-.77-2.63,2.11-5,3.64-3.33,4.8,2.49,1.78,8.6.25,10.12-1.13s2-3.42,3-4.59a8.26,8.26,0,0,1,2.75-1.76h0c1.26-.38,1.16,3.61,1.16,3.61.25.39,1.52.25,1.66,0s-.1-3.08.18-4.21S284.37,164.62,284,163.42Z" fill="#13171a"/><path d="M266.48,159.77c1.25-.44,1.33,3.55,1.33,3.55.28.38,1.53.18,1.67-.08s-.26-3.07,0-4.22.64-2.63.2-3.8h0a.84.84,0,0,0-.06-.24,40,40,0,0,1-1.36-3.92,2.76,2.76,0,0,0-.9-1.65,9.59,9.59,0,0,1-.79,5.25c-.57,1-4.58,5.16-6,6.93-1.62,2.09-3.15,2.28-4.57,2.13-1-.12-1.64-.29-1.9-.69-2.52,2.23-4.78,3.87-3.1,4.95,2.57,1.66,8.61-.15,10.06-1.6s1.86-3.51,2.74-4.73a8.43,8.43,0,0,1,2.66-1.88Z" fill="#13171a"/><path d="M279.49,68.22c1.05,5,8.16,10.09,4.15,20.82-.23,6-2.49,32.47-2.48,32.37a14.06,14.06,0,0,1,2.75,6.82c.37,3.26-1.19,28-1.19,28s-3.78,3.07-6.78,0l-3.67-33.75L269.8,88.78a5.59,5.59,0,0,1-.95,0l-2.47,29.33s1.88,4.9,1.84,6.66-.16,23.35-.16,23.35-4,2.39-7.12-.29c0,0-2.74-26-3.46-30.8s.12-47.13.12-47.13Z" fill="#13171a"/><path d="M274.72,29.4,279.35,32A5.25,5.25,0,0,1,282,36.55c0,4.06-1.32,11.47-4.69,19.48-1.45,3.47,1.51,9.37,3.15,15.07.58,2-7.27,6.39-12.67,5.19-3.87-.85-9.09-4.05-10.19-6.39.25-4.28.84-6.12.73-9.39-.11-3.49-1.41-7.4-1.15-11.33.4-10,.2-12.11,4.06-16.4,4.95-5.5,8.29-6.38,8.29-6.38Z" fill="#b9bfc7"/><path d="M259.43,34.53c-2.95,2.85-5.2,6-4.46,10.13s8.25,7.19,11.12,8.19c3.47,1.21,6.39-1,8-3.13,1.27-1.78,1.74-8.54,1.74-8.54l-14.55-8.4Z" fill="#b9bfc7"/><path d="M261.63,14.07c-.7-1.89-1.4-7,.41-8.35l1.55,1.13Z" fill="#868d95"/><path d="M275,21.61l-.36,9a33.31,33.31,0,0,1-4.1,2.48c-2.11,1.06-4.35.24-4.35-1.75V23.72Z" fill="#e0e4ea"/><path d="M266.51,2.26A11.08,11.08,0,0,0,261.66,11v6.76h0a6.61,6.61,0,0,0,9,6.16l2.44-.94a4.77,4.77,0,0,0,2.77-2.89l3.24-9.41a7.32,7.32,0,0,0-2.91-8.45A10.76,10.76,0,0,0,266.51,2.26Z" fill="#e0e4ea"/><path d="M270.79,20c.22-3.21,1.1-11.65,1.1-11.65L267.21,2l.15-.07a7.63,7.63,0,0,1,.72-.26l.35-.11c.27-.07.54-.14.82-.19l.33-.06.89-.11h.32c.3,0,.61,0,.92,0l.29,0a7.3,7.3,0,0,1,.94.08l.21,0a9,9,0,0,1,3.06,1,7.32,7.32,0,0,1,2.91,8.45l-3.24,9.41A4.77,4.77,0,0,1,273.11,23l-2.6,1a6.46,6.46,0,0,1-4,.13l-.78-.28,0,0C267.48,24,270.57,23.12,270.79,20Z" fill="#e0e4ea"/><path d="M274.69,29.38c.7.4,4,3.21,7.76,5.45-.2-11.07.2-26-1.5-29.11A11.34,11.34,0,0,0,271.77,0c-3-.13-8.32,1.11-10.11,5.59a1.13,1.13,0,0,0,1.06,1.11c2.55.27,1.88,2.2,8.17,5.09a9.9,9.9,0,0,0,3.76,1c0,.74-.21,1.5.39,1.73s1.65.22,2-1.5l.63,2-1.76,5.13a5.09,5.09,0,0,1-.88,1.54Z" fill="#868d95"/><path d="M277,13a1.46,1.46,0,0,1,2.36-.31c.79.68,1,3.59-.83,5s-2.82.2-2.82.2Z" fill="#e0e4ea"/><path d="M266.19,31.3c-.24.35-3.29,6.71-3.71,8.1,0,0,10.06-5.56,12.16-8.83Z" fill="#e0e4ea"/><path d="M288.63,55.24l-5.93-19.7a4.73,4.73,0,0,0-5.89-3.17c-2.74.82-3.63,3.26-2.8,6l6.6,17.46L265.22,70.74l3.7,3.9L287.3,59.58A4.1,4.1,0,0,0,288.63,55.24Z" fill="#b9bfc7"/><path d="M268.66,74.32c-1.8,1.63-6.76,7.33-9.8,7.6s-6.24-1.8-6.51-2.4-.52-1.63.61-1.93,4.88-.86,6.21-2.09-.71-1.1-1.87-1.09c-1.4,0-1.73-1.8.3-2s6.52-.11,7.78-1.47Z" fill="#e0e4ea"/><path d="M284,163.43s0-.06,0-.08,0,.05,0,.08Z" fill="#e0e4ea"/><g mask="url(#a1a1963b-177e-4fbf-9d1f-cb3e618f8ce2)"><polygon points="215.36 216.72 150.09 179.03 150.09 103.66 148.09 103.66 148.09 179.03 82.81 216.72 83.81 218.45 149.09 180.76 214.36 218.45 215.36 216.72" fill="url(#f716439a-2c24-4136-a96a-5d6cc26daff5)"/></g><path d="M215.36,140.76l-65.77-38h-1l-65.78,38a1,1,0,0,0-.5.87v76a1,1,0,0,0,.5.87l65.78,38a1,1,0,0,0,.5.14,1,1,0,0,0,.5-.14l65.77-38a1,1,0,0,0,.5-.87v-76A1,1,0,0,0,215.36,140.76Zm-66.27-35.95,63.77,36.82-63.77,36.82L85.31,141.63ZM84.31,143.36l21.24,12.27,42.54,24.55v73.64L84.31,217ZM213.86,217l-63.77,36.82V180.18l43.33-25,20.44-11.8Z" fill="url(#b3b507d0-60bb-4715-953c-945852b90faf)"/><path d="M58.25,84c-.59-.51-1.84-1.42-2.65-2-.11-.19-.21-.37-.32-.58-.53-1-1.22-1.94-1.73-3l-.3-.63c-.86-1.83-5.35.16-4.29,2.3.61,1.24,1.3,2,1.32,3.43,0,.1,0,.21,0,.31l-.13.07s0,.16.12.43a6,6,0,0,0,.28,2.43c.37.92.6,1.56,1.21,1.9a17.29,17.29,0,0,0,2.41,4.11c.64,1,.18,1.1,2.73,1.07s1.79-1.37,1.79-1.37l.74-.36a.69.69,0,0,0,.36-1L58,86.83a1.48,1.48,0,0,0,.21-.8c0-.06-.06-.1-.08-.16,1,.45,2.78,1.15,3.24.55C62,85.57,59.17,84.76,58.25,84Z" fill="#50565d"/><path d="M53.45,75.42l-.14,0L44.08,51.45s.27-5.54.37-10.71c.08-4,0-6-1.12-7.86l0-.05c-.09-.16-.2-.32-.31-.48a1,1,0,0,1-.08-.11l-.33-.43-.11-.13L42,31.12c-2.45-2.65-6.35-1.49-6.35-1.49a1.05,1.05,0,0,0-.35.13C30.44,32,35.35,62,41.93,68.6c.44.44,3.41,6.09,5.4,9.43a4.19,4.19,0,0,0-.19.43l2.73,4.21A3.66,3.66,0,0,1,51.38,80,4.14,4.14,0,0,1,55,79.41Z" fill="#e0e4ea"/><path d="M19.87,29.46a11.29,11.29,0,0,0-.17,2c0,.2,0,.41,0,.61a5.46,5.46,0,0,1-.26,1,7.76,7.76,0,0,0-.46-.77,3.69,3.69,0,0,1-.27-.93,1.33,1.33,0,0,1,.12-1A5.89,5.89,0,0,1,19.87,29.46Z" fill="#e0e4ea"/><path d="M32.33,144.12s.06,0,.09,0a.47.47,0,0,1,.09-.06Z" fill="#ebebeb"/><path d="M44.6,152.29c-1.33-.8-2.81-1.21-3.58-2.69-.2-.4-.39-.8-.57-1.21a3.52,3.52,0,0,0,.43-2.5A116.32,116.32,0,0,1,41,131.55a99.75,99.75,0,0,1,1-11.82,84.64,84.64,0,0,0,1.36-12.41c.21-3.46,1.87-15.22,1.05-20.13-2.46.53-27.11-2.83-31.59.54-1,.76-.61,3.85-.64,4.15a74.69,74.69,0,0,0,0,7.63c0,2.26,0,4.58.22,6.84.12,1.42.24,2.85.32,4.29a73.32,73.32,0,0,1-.12,12.66c-.45,3.86-1.63,7.54-1.92,11.44a56.74,56.74,0,0,0,.11,7.37c.3,5.84.35,11.68.87,17.51a1.25,1.25,0,0,0,.12.54,1.48,1.48,0,0,0,.33.33l.12.11a14,14,0,0,0,.28,2.34c.13,1.18-.37,1.59.11,2.75a16.63,16.63,0,0,0,2.17,3.13l.4,0s.52,2,.56,2.13a9.85,9.85,0,0,0,1.37,3,12.52,12.52,0,0,0,1.67,2,9.45,9.45,0,0,0,4.46,2.92,4.77,4.77,0,0,0,1.06.11,5.73,5.73,0,0,0,1.78-.34,4.28,4.28,0,0,0,2.38-1.49,5.34,5.34,0,0,0,.14-4.65A30,30,0,0,0,26.84,169l-2.61-4.15a9.21,9.21,0,0,1-1.07-3.1l.23-.16a60.93,60.93,0,0,1-.25-8.86c.17-4,.12-7.93.62-11.92a21.52,21.52,0,0,1,.63-2.95c.75-2.79,2.1-5.9,2.89-8.78,0,1.79.07,3.49.19,5.06.39,5.21,0,14.13,0,14.13a5.22,5.22,0,0,0,1.25,1.24,5.58,5.58,0,0,0-.17,1.63,19.78,19.78,0,0,1,0,2.88s.55,1.36,3.28,2.52A15.94,15.94,0,0,0,35,157.66l.16-.88,1.5.57.88,1.21c.76,1,3.56,1.59,4.7,2a11.29,11.29,0,0,0,5.74.3c2-.32,2.38-1.15,2.59-3.1C50.78,155.38,46.24,153.29,44.6,152.29Z" fill="#13171a"/><path d="M43.89,59.51a106.87,106.87,0,0,0,0,13Q44,75.3,44.26,78c.16,1.68.77,3.27.29,4.89l-1,3.61A8.18,8.18,0,0,1,43,87.84a5.69,5.69,0,0,1-2.24,2.57,26.64,26.64,0,0,1-3.64,1.47,32.79,32.79,0,0,1-22.46-.08s2-18.36.83-20.81S6.59,58.92,6.43,53.22,5,42.76,10.78,38.13A104,104,0,0,1,19.4,31.6,32.07,32.07,0,0,1,26,28.2a11.8,11.8,0,0,1,6.91.06c3.94,1,7.23,2.3,8.59,4.24C44.14,36.23,44.89,44.86,43.89,59.51Z" fill="#e0e4ea"/><path d="M30.58,32.83c3.42-.34,6.33-1.93,9.76-1.66a12.84,12.84,0,0,0-6.51-4.08c-2.42-.64-5.81.37-7.82,1.11a32.07,32.07,0,0,0-6.61,3.4c-2.71,1.76-7.71,4.19-10.91,6.8C2.75,43,4,47.78,4.14,53.49c0,.69,2.44,1.12,2.61,1.79a31.25,31.25,0,0,0,4.43,9,16.32,16.32,0,0,0,1.75,2.51c.33.35.19,1.51.19,1.94,0,1.46,0,2.93-.07,4.39-.07,1.84-.17,3.69-.3,5.53-.07.91-.22,1.86-.22,2.77a12.83,12.83,0,0,1-.63,3.81A7.27,7.27,0,0,0,11.57,89a4.11,4.11,0,0,0,1.88,2.4c.55.23,1.11.44,1.68.65a11.53,11.53,0,0,0,1.58.3c-.07,0,.24-8.61.24-8.89a92,92,0,0,1,.1-9.54c.32-4.14.65-8.27.84-12.42a45,45,0,0,0,.16-5.32q-.19-2.91-.54-5.8c-.3-2.46-.31-5.56-1.58-7.71a8.52,8.52,0,0,0-1.61-2.15c-1.15-1-.89-1.36.13-2.28a13.88,13.88,0,0,1,3.09-2.17,22.12,22.12,0,0,1,4.15-1.79A8.15,8.15,0,0,1,22.8,34C25.4,33.68,28,33.09,30.58,32.83Z" fill="#e0e4ea"/><path d="M32.64,37.78s.63-1.2,1.45-2.57c0-.18-.06-.38-.1-.56a.37.37,0,0,0,.08-.19.53.53,0,0,0-.27-.53,10.88,10.88,0,0,0-.46-1.36l.31-5.86a5.32,5.32,0,0,0-1-.45c-.85-.36-1.71-.69-2.59-1a25.22,25.22,0,0,0-4.67-1.2,12.63,12.63,0,0,0-1.62-.13h-.23c-.14,0-.28,0-.41,0a2.44,2.44,0,0,0-.56.08,4.46,4.46,0,0,0-1,.22c-.68.25-1.53.78-1.58,1.56-.15,2.41-.22,4.82-.6,7.21a.69.69,0,0,0,0,.35c0,.45.18.77.65,1.24,1.77,1.77,3.9,3.26,5.58,5.11,1.53,1.67,4.62-3,6.11-1.3a4.21,4.21,0,0,1,.54,1.25A7.42,7.42,0,0,1,32.64,37.78Z" fill="#50565d"/><path d="M42.81,34.05c-.53-.79-2.47-2.88-2.47-2.88s-2.4-.43-3.33.17c-1.5,1-4.37,6.44-4.37,6.44a8.42,8.42,0,0,0-.26,3.93c.36,2.28,2.87,2.8,4.27,19.07A221.35,221.35,0,0,1,37,91.86c0-.11,2.7-.84,3-1a15.06,15.06,0,0,0,3.58-2,5.3,5.3,0,0,0,1.83-3.45,8.92,8.92,0,0,0,.16-3.37,42.47,42.47,0,0,1-.85-7.53c0-1.31,0-2.63,0-3.94V61.91c0-4.95-.22-9.85.09-14.76.2-3.2.48-6.6-.41-9.72A12.28,12.28,0,0,0,42.81,34.05Z" fill="#e0e4ea"/><path d="M34.07,34.46l-1.43,3.32,3.2,4.41s2.47-2.61,2.24-8S34.07,34.46,34.07,34.46Z" fill="#e0e4ea"/><path d="M37.69,31.17c-.43,3-3.23,3.87-7,3.15a14.81,14.81,0,0,1-5.32-2.59c-.6-.45-1.11-.85-1.54-1.19l-.36-.32a3.5,3.5,0,0,0-.31-.27c-.24-.24-.39-.37-.39-.37-9.86-10.27-3.87-11.47-1.95-16.14a4.18,4.18,0,0,1,.56-1,4.26,4.26,0,0,1,.58-.78C24.79,8,31.06,6,34.09,6.38a7,7,0,0,1,5,3.94,13.85,13.85,0,0,1,1.26,3.09,2,2,0,0,1,.09.45C41,17.48,38.11,28.34,37.69,31.17Z" fill="#50565d"/><path d="M38.07,6.68c-2.54-2.62-5.71-5-9.41-5.6-4-.62-7.37.86-10.29,3.4a1.79,1.79,0,0,0-.21.24,1.69,1.69,0,0,0-.19.19,1.75,1.75,0,0,0-.42.4,13.31,13.31,0,0,0-.89,1.2l-.3.49a11.1,11.1,0,0,0-1.18,3.34l-.06.41a14.22,14.22,0,0,0-.07,2.53,18.3,18.3,0,0,0,.57,3.11c.28,1.06.58,2.12.89,3.18.09.25.15.51.21.74.39,1.22.74,2.45,1.1,3.66a12.39,12.39,0,0,0,.64,2.2,5.58,5.58,0,0,0,1.35,1.44c.51.42,1,.82,1.61,1.24l0,0s0-.05,0-.07a4.26,4.26,0,0,1,.07-.93V27.8a10.13,10.13,0,0,0-1.87-5.19,6.33,6.33,0,0,1-.86-1.84,2.18,2.18,0,0,1-.09-.69c0-.13,0-.26,0-.39a3.05,3.05,0,0,1,.47-1.6,1.79,1.79,0,0,1,3,.31,10.19,10.19,0,0,1,.76,2.5,9.94,9.94,0,0,1,.3,2.09c0,.24,0,.47,0,.7.59.17,1.16.34,1.76.49,0-.34.1-.68.17-1,.31-2,.72-3.89.91-5.9,0-.1,0-.19,0-.29s0-.15,0-.22C26.77,13.24,30.45,12,36.65,12c2.22,0,2.84.49,3.68,1.19A9.58,9.58,0,0,0,38.07,6.68Z" fill="#13171a"/><path d="M26.18,17a4.33,4.33,0,0,0-.08.5c-.19,2-.6,3.94-.91,5.91-.07.34-.13.67-.17,1-.6-.15-1.17-.32-1.76-.48v-.24c0-.23,0-.46,0-.7a10.76,10.76,0,0,0-.3-1.86,10,10,0,0,0-.76-2.49,1.79,1.79,0,0,0-3-.32,3.36,3.36,0,0,0-.47,1.37c0,.13,0,.26,0,.39a3.92,3.92,0,0,0,.09.93,1.21,1.21,0,0,0,.08.25,7.34,7.34,0,0,0,.78,1.59,10.2,10.2,0,0,1,1.87,5V28c0,.13-.07.51-.07.78a.06.06,0,0,0,0,0c-.59-.42-1.1-.82-1.61-1.24a5.58,5.58,0,0,1-1.35-1.44,12.39,12.39,0,0,1-.64-2.2c-.36-1.21-.71-2.44-1.1-3.66-.06-.23-.12-.49-.21-.74-.31-1.06-.61-2.12-.89-3.18a18.3,18.3,0,0,1-.57-3.11,14.22,14.22,0,0,1,.07-2.53l.06-.41A14.86,14.86,0,0,1,16.36,7l.3-.49a13.31,13.31,0,0,1,.89-1.2,1.75,1.75,0,0,1,.42-.4,1.69,1.69,0,0,1,.19-.19,3.18,3.18,0,0,0-.61.82c-1.19,2.18-.25,5.82,1.42,7.22a16.05,16.05,0,0,0,2.81,1.65,34.94,34.94,0,0,1,4,2.28,2.47,2.47,0,0,1,.38.28Z" fill="#13171a"/><path d="M14.56,107.81c-.28-.37-.75-.93-1.23-1.49a3.48,3.48,0,0,0-.23-.38,16.73,16.73,0,0,1-2.08-2.5,8.31,8.31,0,0,1-.84-3c-.4-4.45.7-12.78-.29-17.5S1,81.7,1,81.7s-.21,5.1,2.24,13,2.94,8.72,3,12a5.89,5.89,0,0,0,.29,2.83,13.92,13.92,0,0,0,.86,1.88,25.83,25.83,0,0,0,1.37,3.3c.47,1.13,0,1.09,2.6,1.91s2.09-.68,2.09-.68l.82-.1a.58.58,0,0,0,.56-.8l-1.12-4.92a2.75,2.75,0,0,0,.21-.69c.87.71,2.78,2.18,3.39,1.73C18.08,110.57,15.35,108.87,14.56,107.81Z" fill="#50565d"/><path d="M1,81.7s-.21,5.1,2.24,13,2.94,8.72,3,12a8.75,8.75,0,0,0,.1,2.26,11.44,11.44,0,0,0,.9-4.66c-.28-3.77-1.63-7.35-2.46-11A34.76,34.76,0,0,1,4.15,80.7,18.32,18.32,0,0,0,1,81.7Z" fill="#50565d"/><path d="M3.87,85.91c0,.23,0,.37,0,.38S3.85,86.07,3.87,85.91Z" fill="#d18d6d"/><path d="M19.16,30.05a4.52,4.52,0,0,0-1.52,1.25,27.58,27.58,0,0,0-2,2.56S18,40.84,27,43l3.47.54c.24-1.84.27-3.68.5-5.51a12.83,12.83,0,0,1-5.68-1.5A13.9,13.9,0,0,1,19.16,30.05Z" fill="#e0e4ea"/><path d="M17.79,49v0c-.1-.68-.19-1.33-.29-2h0C16.82,42.85,16,40.1,13.66,39c0,0-8.24-2.95-9.79,7.09S3.05,59.33,1.66,67,.14,76.21,0,78.26,1.24,88.63,2.59,93.71c.66,2.49,1.31,4.64,1.8,6.18a4,4,0,0,0-.28.41l1.46,4.84a4.83,4.83,0,0,1,2.18-2.68,4,4,0,0,1,3.67-.32L11,97.6l-.3-.1,0-3.76h0l-.12-16.55s.63-1.81,1.52-4.52C14.28,66,18,54,17.84,49.59,17.83,49.39,17.81,49.2,17.79,49Z" fill="#e0e4ea"/><line x1="136.86" y1="75.67" x2="93.35" y2="48.68" fill="none" stroke="#fdd13a" stroke-linecap="square" stroke-miterlimit="10"/><line x1="161.41" y1="75.67" x2="204.92" y2="48.68" fill="none" stroke="#fdd13a" stroke-linecap="square" stroke-miterlimit="10"/><path d="M158.91,87.35l-9.21-17c-.14-.43-.57-.57-.85-.28a.3.3,0,0,0-.28.28l-9.21,17a.65.65,0,0,0,0,.71.73.73,0,0,0,.56.28h18.42a.77.77,0,0,0,.57-.28A.64.64,0,0,0,158.91,87.35Zm-10.63-11h1.56V82h-1.56Zm.85,9.49A1.12,1.12,0,0,1,148,84.66a1,1,0,0,1,1.13-1.14,1.14,1.14,0,1,1,0,2.27Z" fill="#fdd13a"/></g></svg>