<svg xmlns="http://www.w3.org/2000/svg" xmlns:xlink="http://www.w3.org/1999/xlink" width="185.59" height="233.81" viewBox="0 0 185.59 233.81"><defs><linearGradient id="ad930f34-ca82-4707-bf12-d3c100e84d67" x1="62.41" y1="118.53" x2="82.06" y2="84.51" gradientUnits="userSpaceOnUse"><stop offset="0" stop-color="#0064ff"/><stop offset="0.19" stop-color="#2086fa"/><stop offset="0.4" stop-color="#3ca3f6"/><stop offset="0.6" stop-color="#4fb7f3"/><stop offset="0.81" stop-color="#5bc4f2"/><stop offset="1" stop-color="#5fc8f1"/></linearGradient><linearGradient id="be1b8d46-7db9-4bf7-aca2-5c5cb223bdb4" x1="62.41" y1="73.16" x2="62.41" y2="95.85" gradientUnits="userSpaceOnUse"><stop offset="0" stop-color="#0064ff"/><stop offset="0.15" stop-color="#0766fd"/><stop offset="0.47" stop-color="#0f68fc"/><stop offset="1" stop-color="#1269fb"/></linearGradient><linearGradient id="be4f016d-2376-4904-9010-196adc2bfd61" x1="62.41" y1="118.53" x2="42.77" y2="84.51" gradientUnits="userSpaceOnUse"><stop offset="0" stop-color="blue"/><stop offset="1" stop-color="#003bc9"/></linearGradient><linearGradient id="ef54c60a-1be6-4738-be26-bacbf624138b" x1="62.41" y1="95.78" x2="62.41" y2="118.53" gradientUnits="userSpaceOnUse"><stop offset="0" stop-color="#5fc8f1"/><stop offset="0.19" stop-color="#5bc4f2"/><stop offset="0.4" stop-color="#4fb7f3"/><stop offset="0.6" stop-color="#3ca3f6"/><stop offset="0.81" stop-color="#2086fa"/><stop offset="1" stop-color="#0064ff"/></linearGradient><linearGradient id="b6524e62-56f0-4c80-a4ae-e2f9f8fbe3e0" x1="1584.12" y1="3000.51" x2="1578.44" y2="2979.34" gradientTransform="matrix(0.5, 0.87, -0.87, 0.5, 1871.01, -2774.18)" xlink:href="#ef54c60a-1be6-4738-be26-bacbf624138b"/><linearGradient id="be644950-8a27-4d6e-9642-5c4abd8c20c4" x1="4892.43" y1="-2729.93" x2="4886.75" y2="-2751.1" gradientTransform="matrix(-0.5, 0.87, 0.87, 0.5, 4870.68, -2774.18)" xlink:href="#ef54c60a-1be6-4738-be26-bacbf624138b"/></defs><title>svgArtboard 33</title><g id="eda89161-c8d2-442f-b1de-a8d81fd88545" data-name="Layer 4"><path d="M72.23,17.43,63,.43c-.14-.42-.56-.57-.85-.28a.3.3,0,0,0-.28.28l-9.21,17a.65.65,0,0,0,0,.71.73.73,0,0,0,.57.28H71.66a.73.73,0,0,0,.57-.28A.64.64,0,0,0,72.23,17.43Zm-10.62-11h1.55v5.67H61.61Zm.85,9.49a1.12,1.12,0,0,1-1.14-1.13,1.05,1.05,0,0,1,1.14-1.14,1.14,1.14,0,0,1,0,2.27Z" fill="#fdd13a"/><path d="M121.07,67.76a69.91,69.91,0,0,1-12.65,5.91,11.7,11.7,0,0,1-3.81,4.18c-2.23,1.22-2.32,1.17-3.09,1.16s-2.65-.32-2.65-.32-1.75,1.88-3.06,2.06-.37-1.62.81-2.75S101,74.39,101,74.39a48.09,48.09,0,0,1,4.4-3.79c1.25-.77,10.72-7.83,10.72-7.83Z" fill="#9fa5ad"/><path d="M153.27,145.42s-.06,0-.09,0-.06,0-.1-.06Z" fill="#ebebeb"/><path d="M152.56,32.61s-2.83-2.94-6.26-1.82-4.42,2.6-6.87,7.16-4.94,9.51-4.94,9.51l-19.8,16.32-.14,0-3.32,2.71a4.09,4.09,0,0,1,2.89,2.25,3.65,3.65,0,0,1,0,3.11l4.46-2.33a4,4,0,0,0,0-.47c3.37-1.93,8.74-5.39,9.34-5.55C137.09,60.91,156.85,36,152.56,32.61Z" fill="#e0e4ea"/><path d="M141.25,37.28a7.93,7.93,0,0,1,2.35-4.86c2.45-2.65,6.36-1.49,6.36-1.49.88.15,1.4,1.29,1.64,3.08-1.62.4-3.6,0-5.14.05a7.07,7.07,0,0,0-4.54,2.41C141.67,36.71,141.48,37,141.25,37.28Z" fill="#e0e4ea"/><path d="M174.87,136.05c-.3-3.91-1.48-7.59-1.93-11.45a73.32,73.32,0,0,1-.12-12.66c.08-1.44.2-2.86.32-4.29.19-2.26.17-4.58.22-6.84a71.92,71.92,0,0,0,0-7.63,27.9,27.9,0,0,0-.82-5.17c-.2-.71-28.94,1-31.4.48-.83,4.91.83,16.67,1,20.13A82,82,0,0,0,143.56,121a99.74,99.74,0,0,1,1,11.82,116.32,116.32,0,0,1,.13,14.34,3.63,3.63,0,0,0,.43,2.5c-.18.41-.36.82-.57,1.21-.77,1.48-2.25,1.89-3.57,2.69-1.65,1-6.19,3.09-5.93,5.48.21,2,.62,2.79,2.59,3.1a11.28,11.28,0,0,0,5.74-.3c1.14-.42,3.94-1,4.7-2l.88-1.21,1.5-.57.17.88a16.17,16.17,0,0,0,3.12-1.17c2.73-1.16,3.29-2.52,3.29-2.52a18.93,18.93,0,0,1,0-2.88,5.26,5.26,0,0,0-.17-1.63,5.22,5.22,0,0,0,1.25-1.24s-.38-8.92,0-14.13c.12-1.57.18-3.27.18-5.06.79,2.88,2.14,6,2.9,8.78a25,25,0,0,1,.63,2.95c.49,4,.44,7.91.62,11.92a62.37,62.37,0,0,1-.26,8.86l.23.16a9.21,9.21,0,0,1-1.07,3.1l-2.6,4.15a28,28,0,0,0-1.83,3.47,5.32,5.32,0,0,0,.14,4.64,4.31,4.31,0,0,0,2.38,1.49,5.79,5.79,0,0,0,1.78.34,4.71,4.71,0,0,0,1.06-.11,9.45,9.45,0,0,0,4.46-2.92,13.14,13.14,0,0,0,1.68-2,10,10,0,0,0,1.36-3c0-.14.59-2.12.56-2.13l.4.06a17,17,0,0,0,2.17-3.14c.49-1.16,0-1.57.12-2.75a13,13,0,0,0,.27-2.34l.13-.11a1,1,0,0,0,.45-.87c.51-5.83.56-11.67.86-17.51A58.45,58.45,0,0,0,174.87,136.05Z" fill="#2e3438"/><path d="M141.7,60.81a108.93,108.93,0,0,1,.06,13c-.1,1.84-.24,3.67-.43,5.5-.16,1.67-.77,3.26-.29,4.88.35,1.2.7,2.41,1.06,3.61a7.29,7.29,0,0,0,.47,1.31,5.69,5.69,0,0,0,2.24,2.57,26.64,26.64,0,0,0,3.64,1.47,32.84,32.84,0,0,0,22.46-.07s-2-18.37-.83-20.82,8.92-12.07,9.09-17.77,1.39-10.46-4.35-15.09a104,104,0,0,0-8.63-6.53,31.82,31.82,0,0,0-6.61-3.4,11.8,11.8,0,0,0-6.91.06c-3.94,1-7.23,2.3-8.59,4.24C141.46,37.53,140.71,46.16,141.7,60.81Z" fill="#e0e4ea"/><path d="M155,34.13c-3.42-.34-6.32-1.93-9.76-1.66a12.92,12.92,0,0,1,6.51-4.07c2.42-.65,5.82.36,7.82,1.1a32.07,32.07,0,0,1,6.61,3.4c2.72,1.76,7.71,4.19,10.91,6.8,5.75,4.62,4.52,9.38,4.35,15.09,0,.69-2.43,1.12-2.61,1.79a31.22,31.22,0,0,1-4.42,9,16.38,16.38,0,0,1-1.76,2.51c-.33.35-.18,1.51-.19,1.94,0,1.46,0,2.93.07,4.39.07,1.85.18,3.69.3,5.53.07.91.23,1.86.22,2.77a13.17,13.17,0,0,0,.64,3.81A7.4,7.4,0,0,1,174,90.3a4.12,4.12,0,0,1-1.88,2.39c-.55.23-1.11.44-1.67.65a11.66,11.66,0,0,1-1.59.3c.07,0-.24-8.61-.24-8.89a94.85,94.85,0,0,0-.09-9.54c-.32-4.14-.66-8.27-.84-12.42a45,45,0,0,1-.17-5.32q.19-2.91.54-5.8c.3-2.46.31-5.56,1.58-7.71a8.52,8.52,0,0,1,1.61-2.15c1.16-1,.89-1.36-.12-2.28a14.52,14.52,0,0,0-3.1-2.17,21.84,21.84,0,0,0-4.15-1.79,7,7,0,0,0-1.1-.25C160.2,35,157.64,34.39,155,34.13Z" fill="#e0e4ea"/><path d="M165.73,30.76a12.3,12.3,0,0,1,.17,2c0,.2,0,.41,0,.61a5.46,5.46,0,0,0,.26,1c0-.06.42-.66.46-.77a3.32,3.32,0,0,0,.27-.93,1.33,1.33,0,0,0-.12-1A6.19,6.19,0,0,0,165.73,30.76Z" fill="#e0e4ea"/><path d="M151.2,39.06c0,.43,0,.86,0,1.29,0,1.74-.6,3.63.34,5.14.73,1.18,1.5-4.83,2.32-5.78,1.5-1.74,4.58,3,6.11,1.3,1.68-1.84,3.81-3.33,5.58-5.11a1.57,1.57,0,0,0,.47-2.06c-.8-2.35-2.5-3.43-4.69-4.33a11.72,11.72,0,0,0-6.9-.2c-.73,1.35-1.39,2.74-2,4.14A15.58,15.58,0,0,0,151.2,39.06Z" fill="#9fa5ad"/><path d="M142.78,35.35c.53-.79,2.47-2.88,2.47-2.88s2.4-.43,3.33.17c1.51,1,4.37,6.44,4.37,6.44a8.26,8.26,0,0,1,.26,3.93c-.36,2.28-2.86,2.8-4.27,19.07a221.35,221.35,0,0,0-.34,31.08c0-.11-2.7-.84-3-1a14.93,14.93,0,0,1-3.59-2,5.29,5.29,0,0,1-1.82-3.45,8.73,8.73,0,0,1-.17-3.37,42.48,42.48,0,0,0,.86-7.53c0-1.31,0-2.63,0-3.94V63.21c0-5,.22-9.85-.09-14.76-.2-3.2-.48-6.6.42-9.72A12,12,0,0,1,142.78,35.35Z" fill="#e0e4ea"/><path d="M151.52,35.76,153,39.08l-3.2,4.41s-2.47-2.61-2.24-8S151.52,35.76,151.52,35.76Z" fill="#e0e4ea"/><path d="M166,33.84a1.56,1.56,0,0,1-.42,2c-.47.47-1,.92-1.46,1.36-.64.57-1.29,1.12-1.94,1.68-.36.3-.72.61-1.09.9a1.81,1.81,0,0,0-.51.59c-.21.21-.43.41-.63.63l-.06.07a7.46,7.46,0,0,0,.6-2.18l.15-1a17.56,17.56,0,0,0,.15-3.83c-.12-1.5-.44-3-.45-4.47,0-.11,0-.21,0-.31a6.83,6.83,0,0,1,.94.27C163.5,30.41,165.2,31.49,166,33.84Z" fill="#9fa5ad"/><path d="M164.32,27.62c0,.21,0,.41.05.61q.13,1.85.18,3.69c0,.44.17,1.29-.06,1.65a4,4,0,0,1-.87.71,19.48,19.48,0,0,1-5.14,2.91c-4.67,1.75-6,.65-6,.65L151.94,28a5.61,5.61,0,0,1,1-.45c.85-.36,1.72-.69,2.59-1a25.22,25.22,0,0,1,4.67-1.2,11.49,11.49,0,0,1,2.27-.13,1.33,1.33,0,0,1,.91.27,3,3,0,0,1,.74,1.22A5.4,5.4,0,0,1,164.32,27.62Z" fill="#9fa5ad"/><path d="M161.28,25.27a6.74,6.74,0,0,1,2.72.27c.68.25,1.53.78,1.58,1.56.16,2.41.23,4.82.61,7.21a.7.7,0,0,1,0,.38.68.68,0,0,1-.42.29,16.48,16.48,0,0,1-2.59.69,9.1,9.1,0,0,0-2.37.44,1.5,1.5,0,0,0-.59-1.25c-.49-.27-1.1.36-1.56.51a21,21,0,0,1-2.06.58,15.37,15.37,0,0,1-4.28.25c-.32,0-.73,0-.79-.44a.57.57,0,0,1,.31-.56,12.38,12.38,0,0,1,1.5-.61c1.34-.72,2.52-1.72,3.92-2.33a17.89,17.89,0,0,0,2.38-1c.37-.24.78-.57.8-1s-.1-1,0-1.59a12.15,12.15,0,0,1,.38-1.69A10.46,10.46,0,0,1,161.28,25.27Z" fill="#9fa5ad"/><path d="M170.48,12.05c0-.13,0-.28-.07-.41a11.1,11.1,0,0,0-1.18-3.34l-.3-.49a11.64,11.64,0,0,0-.89-1.2,1.58,1.58,0,0,0-.42-.4,1.13,1.13,0,0,0-.19-.19,1.29,1.29,0,0,0-.21-.24,13.45,13.45,0,0,0-7.37-3.48,11.77,11.77,0,0,0-2.91.08,14.68,14.68,0,0,0-9.51,5.77,14.82,14.82,0,0,0-2.32,6.55c-1.12,6.4,1.24,8.78,2.79,17.77a3.91,3.91,0,0,0,.83,2c1.17,1.39,3.42,1.73,6.2,1.2A14.85,14.85,0,0,0,160.24,33c.61-.45,1.12-.85,1.54-1.19l.37-.32a2.44,2.44,0,0,1,.3-.27c.24-.24.39-.37.39-.37.47-.48.89-.94,1.28-1.39a2.29,2.29,0,0,1,0,.62,0,0,0,0,1,0,.07l0,0c.59-.43,1.1-.83,1.61-1.25a5.27,5.27,0,0,0,1.35-1.44,12.39,12.39,0,0,0,.64-2.2c.36-1.21.72-2.43,1.1-3.66.06-.23.13-.49.21-.74.32-1.06.61-2.12.89-3.18a17.37,17.37,0,0,0,.57-3.11A15.23,15.23,0,0,0,170.48,12.05Z" fill="#9fa5ad"/><path d="M160.75,18.49a18,18,0,0,0-.35,2,17,17,0,0,0,0,4.19c.05.43.12.78.17,1,.59-.15,1.16-.31,1.75-.48V25c0-.23,0-.46,0-.69a10.72,10.72,0,0,1,.3-1.87,10.12,10.12,0,0,1,.76-2.49,1.79,1.79,0,0,1,3-.32,3.09,3.09,0,0,1,.47,1.37c0,.13,0,.26,0,.39a4.54,4.54,0,0,1-.08.93,1.25,1.25,0,0,1-.09.25,6.91,6.91,0,0,1-.78,1.59,10.19,10.19,0,0,0-1.86,5v.15c0,.13.06.51.06.78a.08.08,0,0,1,0,.05c.59-.43,1.1-.83,1.61-1.25a5.27,5.27,0,0,0,1.35-1.44,12.39,12.39,0,0,0,.64-2.2c.36-1.21.72-2.43,1.1-3.66.06-.23.13-.49.21-.74.32-1.06.61-2.12.89-3.18a18.3,18.3,0,0,0,.57-3.11,15.23,15.23,0,0,0-.06-2.53c0-.13,0-.28-.07-.41a14.39,14.39,0,0,0-1.18-3.34l-.3-.49a11.64,11.64,0,0,0-.89-1.2,1.58,1.58,0,0,0-.42-.4,1.13,1.13,0,0,0-.19-.19,7.23,7.23,0,0,1,.61.82c.57,1-.77,2.22-1.78,4.81-.8,2.08-.53,2.86-1.46,3.52-.57.41-3.32,2-3.66,2.34Z" fill="#2e3438"/><path d="M182.36,96c2.44-7.91,2.23-13,2.23-13l-.22-.09,0,0-.26-.1h0l-.36-.14h0a18.67,18.67,0,0,0-2.17-.63h0c-2.33-.5-5.18-.52-5.75,2.19-1,4.72.11,13-.29,17.5a8.12,8.12,0,0,1-.84,3,17.29,17.29,0,0,1-2.07,2.5,2.45,2.45,0,0,0-.24.38c-.48.56-.95,1.12-1.23,1.49-.79,1.06-3.51,2.76-2.7,3.33.62.45,2.53-1,3.4-1.73a3.22,3.22,0,0,0,.2.69l-1.12,4.92a.59.59,0,0,0,.56.81l.82.09s-.52,1.51,2.09.68,2.13-.78,2.6-1.91a24.44,24.44,0,0,0,1.37-3.3,11.82,11.82,0,0,0,.86-1.88,4.45,4.45,0,0,0,.3-2.37c0-.15,0-.29,0-.46C179.41,104.73,179.92,103.91,182.36,96Z" fill="#9fa5ad"/><path d="M169.91,55.61c1.17,4.9,4.63,20.6,5.46,22s.33,8.72.33,8.72a12.13,12.13,0,0,0,6,.7c2.82-.61,2.53.55,2.53.55a40.8,40.8,0,0,0,.23-13.48c-1.18-6.89-2.4-14.51-2.33-19.21,0-.78,0-1.75-.07-2.84,0-.17,0-.34,0-.49,0-.52-.1-1-.17-1.59-.12-.72-.25-1.45-.42-2.15v0c-.12-.42-.23-.84-.36-1.24a9.23,9.23,0,0,0-1-2.27,5.72,5.72,0,0,0-5.67-2.86,0,0,0,0,0,0,0,5.85,5.85,0,0,0-1.86.72,7.37,7.37,0,0,0-2.69,3.4C168.36,48.66,169.19,52.46,169.91,55.61Z" fill="#e8b58f"/><path d="M181.73,87.21c0,.23,0,.37,0,.38S181.74,87.37,181.73,87.21Z" fill="#d18d6d"/><path d="M172.48,42.14c.38.21.74.4.93.54,4.86,3.51,4.6,9.65,4.56,15.1a41.85,41.85,0,0,0,1.47,11.41c1.37,4.92,2.13,15.35,2.29,17.85,2.82-.61,2.53.55,2.53.55a40.8,40.8,0,0,0,.23-13.48c-1.18-6.89-2.4-14.51-2.33-19.21,0-.78,0-1.75-.07-2.84,0-.17,0-.34,0-.49,0-.52-.1-1-.17-1.59-.12-.72-.25-1.45-.42-2.15v0c-.12-.42-.23-.84-.36-1.24a12.73,12.73,0,0,0-1-2.27,5.72,5.72,0,0,0-5.67-2.86,0,0,0,0,0,0,0A5.85,5.85,0,0,0,172.48,42.14Z" fill="#e0aa82"/><path d="M166.44,31.35A4.56,4.56,0,0,1,168,32.6a27.58,27.58,0,0,1,2,2.56s-2.29,7-11.32,9.13l-3.47.54c-.24-1.84-.26-3.68-.5-5.51a12.83,12.83,0,0,0,5.68-1.5A13.94,13.94,0,0,0,166.44,31.35Z" fill="#e0e4ea"/><path d="M174.88,95,175,78.49s-8-22.83-7.21-28.15c.1-.71.2-1.37.31-2,.61,7.43,7.28,29.89,7.28,29.89S175,95,174.88,95Z" fill="#e0e4ea"/><path d="M185.58,79.56c0-.38-.05-.75-.08-1.15s-.05-.54-.08-.85-.07-.63-.12-1c-.2-1.64-.59-4-1.37-8.32-1.13-6.19-.86-9.47-1.55-15.88-.16-1.48-.37-3.12-.66-5-.05-.31-.1-.6-.16-.88l-.06-.26c0-.18-.09-.37-.13-.54s-.06-.19-.08-.28l-.15-.47-.09-.25c-.05-.15-.11-.29-.16-.43a2.29,2.29,0,0,1-.1-.23l-.19-.39-.1-.2-.21-.38-.1-.15-.24-.37-.09-.12-.28-.35-.07-.08-.34-.36,0,0A7,7,0,0,0,173,40h0l-.23,0-.1,0-.1,0-.15,0h0l-.43.12c-2.74,1.31-3.36,4.74-4.14,10.07S175,78.49,175,78.49l-.16,20.31-.3.1-.38,4.54a4,4,0,0,1,3.67.32,4.83,4.83,0,0,1,2.18,2.68l1.47-4.84s-.1-.16-.28-.4c.49-1.55,1.13-3.7,1.8-6.19C184.35,89.93,185.72,81.61,185.58,79.56Z" fill="#e0e4ea"/><path d="M151.71,4.27A11.75,11.75,0,0,1,161.4,5.8,13.47,13.47,0,0,1,166,11.55L165.59,18,167.48,20l2.1-1.57c0-.16.1-.43.16-.77.7-3.46,1.17-5.83.48-8.16a7.7,7.7,0,0,0-1.08-2.25s.25-2.19-.77-3.1l-.16,1.53s-.54-2.73-2-3.64l.27,2.73c-1-.75-2-1.51-3.2-2.26a37.55,37.55,0,0,0-4.2-2.29l.67,2A22,22,0,0,0,156.55.92,21.79,21.79,0,0,0,152.74,0l1.34,2.62Z" fill="#2e3438"/><line x1="62.46" y1="27.44" x2="62.46" y2="60.37" fill="none" stroke="#fdd13a" stroke-linecap="square" stroke-miterlimit="10"/><path d="M40.17,97.85s4.85-.2,7.34-2.2,3.61-3.24,4.07-6-.85-4.35-1.84-4.6-3.53,4-4.56,4.28.77-2.13-.54-3S40.05,91,34.87,94.4,40.17,97.85,40.17,97.85Z" fill="#e9b488"/><polygon points="62.41 118.53 82.06 107.19 82.06 84.51 62.41 95.85 62.41 118.53" fill="url(#ad930f34-ca82-4707-bf12-d3c100e84d67)"/><polygon points="62.41 73.16 82.06 84.51 62.41 95.85 42.77 84.51 62.41 73.16" fill="url(#be1b8d46-7db9-4bf7-aca2-5c5cb223bdb4)"/><polygon points="42.77 107.19 42.77 84.51 62.41 95.85 62.41 118.53 42.77 107.19" fill="url(#be4f016d-2376-4904-9010-196adc2bfd61)"/><polygon points="62.53 118.46 62.41 118.53 62.29 118.46 62.29 95.78 62.41 95.85 62.53 95.78 62.53 118.46" fill="url(#ef54c60a-1be6-4738-be26-bacbf624138b)"/><polygon points="81.94 84.44 62.41 95.71 62.41 95.85 62.54 95.92 82.06 84.64 82.06 84.5 81.94 84.44" fill="url(#b6524e62-56f0-4c80-a4ae-e2f9f8fbe3e0)"/><polygon points="42.89 84.44 62.41 95.71 62.41 95.85 62.29 95.92 42.77 84.64 42.77 84.5 42.89 84.44" fill="url(#be644950-8a27-4d6e-9642-5c4abd8c20c4)"/><path d="M68.74,108.59s4.86-.2,7.35-2.2,3.61-3.24,4.07-6-.85-4.35-1.84-4.6-3.53,4-4.56,4.28.77-2.13-.54-3-4.59,4.68-9.77,8.11S68.74,108.59,68.74,108.59Z" fill="#50565d"/><path d="M49,87.24a63.8,63.8,0,0,1,3.08,13.48l1.14,8.53,9.84-5.69s6.07,1.46,5.88,6.83c0,0-10.67,7.66-14.19,9.78S49,124.77,46,121.34s-5.5-14.81-5.43-16.2S49,87.24,49,87.24Z" fill="#b9bfc7"/><path d="M39.71,223.25l2.88.64s6.72-4.16,9.92-.64c0,0,2,2.11-6.4,6.4-8.17,4.16-11.7,4.16-11.7,4.16s-4.51-1.55-4-12.48h6.72Z" fill="#2e3438"/><path d="M27.91,214.71l2.88.64s6.72-4.16,9.92-.64c0,0,2,2.1-6.4,6.4-8.17,4.16-11.71,4.16-11.71,4.16s-4.51-1.56-4-12.48h6.72Z" fill="#2e3438"/><path d="M44.58,131.4l4.09.32s3.91,17.6-2,40.32-4,51.85-4,51.85-1.92,3.52-5.12,3.52-5.44-2.88-7-6.08v-6.4s-2.88,3.52-6.4,3.52a7.48,7.48,0,0,1-5.44-2.24V186.45s1-9.93,2.24-16.65-4.48-23.36-3.2-33.92C17.63,135.88,34.09,127.56,44.58,131.4Z" fill="#2e3438"/><path d="M43.87,57.48s1.6,12.8,0,15-8,0-8,0v7s-2.24,2.88-5.12,1.92a12.83,12.83,0,0,1-5.12-3.84V65.48Z" fill="#50565d"/><path d="M35.87,79.56S47.07,83.72,49,87.24s.64,7.6,0,13.88-2.88,26.12-.32,30.6a34.08,34.08,0,0,1-9.6,9.6c-5.76,3.52-8.32,4.16-13.44,1.6a22.35,22.35,0,0,1-8-7s-6.08-43.2-3.2-51.2,4.93-7.71,11.2-7A58,58,0,0,1,35.87,79.56Z" fill="#b9bfc7"/><path d="M20.41,76.5A63.8,63.8,0,0,1,23.49,90l1.14,8.53,9.84-5.69s6.07,1.45,5.88,6.83c0,0-10.67,7.65-14.19,9.78s-5.73,4.6-8.74,1.17S11.92,95.79,12,94.4,20.41,76.5,20.41,76.5Z" fill="#b9bfc7"/><path d="M39.39,61.64a9.08,9.08,0,0,0,4.48-4.16c1.28-2.88,1-8.64-6.4-9.6S23.07,51.4,21.15,56.2,19.87,65.35,16,69.58.67,77,0,86s9,18.88,17,13.76S33.41,85.31,31.71,74.43,39.39,61.64,39.39,61.64Z" fill="#2e3438"/></g></svg>