<svg xmlns="http://www.w3.org/2000/svg" xmlns:xlink="http://www.w3.org/1999/xlink" width="290" height="430.71">
  <defs>
    <linearGradient id="a" x1="34.74" y1="379.29" x2="110.41" y2="217.01" gradientUnits="userSpaceOnUse">
      <stop offset=".16"/>
      <stop offset=".24" stop-color="#060606"/>
      <stop offset=".35" stop-color="#171717"/>
      <stop offset=".46" stop-color="#333"/>
      <stop offset=".6" stop-color="#5a5a5a"/>
      <stop offset=".74" stop-color="#8d8d8d"/>
      <stop offset=".88" stop-color="#c9c9c9"/>
      <stop offset="1" stop-color="#fff"/>
    </linearGradient>
    <linearGradient id="b" x1="4129.75" y1="379.29" x2="4205.42" y2="217.01" gradientTransform="matrix(-1 0 0 1 4385.01 0)" xlink:href="#a"/>
    <mask id="c" x="0" y="165.91" width="145" height="264.79" maskUnits="userSpaceOnUse">
      <path fill="url(#a)" d="M0 361.31v-195.4l145 67.23v197.57L0 361.31z"/>
    </mask>
    <linearGradient id="d" x1="148.42" y1="428.73" x2="-2.49" y2="167.35" gradientUnits="userSpaceOnUse">
      <stop offset="0" stop-color="#00f"/>
      <stop offset="1" stop-color="#003bc9"/>
    </linearGradient>
    <mask id="e" x="144.99" y="165.91" width="145.01" height="264.79" maskUnits="userSpaceOnUse">
      <path fill="url(#b)" d="M290 361.31v-195.4l-145.01 67.23v197.57L290 361.31z"/>
    </mask>
    <linearGradient id="f" x1="4243.43" y1="428.73" x2="4092.52" y2="167.35" gradientTransform="matrix(-1 0 0 1 4385.01 0)" gradientUnits="userSpaceOnUse">
      <stop offset="0" stop-color="#0064ff"/>
      <stop offset=".19" stop-color="#2086fa"/>
      <stop offset=".4" stop-color="#3ca3f6"/>
      <stop offset=".6" stop-color="#4fb7f3"/>
      <stop offset=".81" stop-color="#5bc4f2"/>
      <stop offset="1" stop-color="#5fc8f1"/>
    </linearGradient>
    <linearGradient id="g" x1="12419.06" y1="100.38" x2="12419.06" y2="233.14" gradientTransform="matrix(-1 0 0 1 12491.56 0)" gradientUnits="userSpaceOnUse">
      <stop offset="0" stop-color="#50565c"/>
      <stop offset="1" stop-color="#121719"/>
    </linearGradient>
    <linearGradient id="h" x1="-153.27" y1="100.38" x2="-153.27" y2="233.14" gradientTransform="translate(370.77)" gradientUnits="userSpaceOnUse">
      <stop offset="0" stop-color="#697077"/>
      <stop offset=".84" stop-color="#121719"/>
    </linearGradient>
    <clipPath id="i">
      <path fill="none" d="M290 165.91l-145 67.23L.02 165.91v.01l-.02-.01V0h289.26l.74 165.91z"/>
    </clipPath>
    <linearGradient id="j" x1="165.47" y1="123.38" x2="127.77" y2="226.96" gradientUnits="userSpaceOnUse">
      <stop offset="0" stop-color="#ecf4ff"/>
      <stop offset="1" stop-color="#6ca4ff"/>
    </linearGradient>
  </defs>
  <g data-name="Layer 4">
    <g mask="url(#c)">
      <path fill="url(#d)" d="M0 361.31v-195.4l145 67.23v197.57L0 361.31z"/>
    </g>
    <g mask="url(#e)">
      <path fill="url(#f)" d="M290 361.31v-195.4l-145.01 67.23v197.57L290 361.31z"/>
    </g>
    <path fill="url(#g)" d="M0 165.91l145-65.53v132.76L0 165.91z"/>
    <path fill="url(#h)" d="M290 165.91l-145-65.53v132.76l145-67.23z"/>
    <g clip-path="url(#i)">
      <path d="M260.46 31.43a2.33 2.33 0 0 0-2.87 1.57l-8.65 30.57-59.66-27 8.83-31.26a2.32 2.32 0 1 0-4.46-1.26l-53.81 190.48a2.32 2.32 0 0 0 1.6 2.86 2.28 2.28 0 0 0 .63.09 2.33 2.33 0 0 0 2.24-1.69l15.08-53.38 59.61 27-11.12 39.29a2.32 2.32 0 0 0 4.47 1.26L262.06 34.3a2.33 2.33 0 0 0-1.6-2.87zm-12.8 36.7l-14.84 52.44-59.64-27L188 41.13zm-87 69.76l11.25-39.79 59.63 27-11.26 39.78z" fill="#fff"/>
      <path d="M182.56 73.13v35.8s.15 19.12-12.44 19.12l-18.42-6.82.65-24z" fill="#0064ff"/>
      <path d="M178.07 72.86c-.5-6.21-9.94-25-28.25-24.27-16.28.6-26.38 16.07-26.38 26.35v.58a22 22 0 0 0-1.3 8.46c.73 14.41 16.79 29.5 33 27.81.81-.08 12.19-1.44 18.4-10.58a28.38 28.38 0 0 0 4.62-14.87c0-.77-.05-2-.08-5.08-.08-4.78.02-7.93-.01-8.4z" fill="#fff"/>
      <path fill="#fff" d="M156.41 108.93l-4.71 12.3-25.15-4.66 2.57-19.63"/>
      <path d="M136.42 103.36a16.29 16.29 0 0 1-1.42 16.87l-10.67-1.91 4.59-27.74 1.94.21a29.54 29.54 0 0 0 1.78 5.94 30.17 30.17 0 0 0 3.78 6.63z" fill="#c8deff"/>
      <path d="M130.71 90.47c.19 1.9 1.27 11.38 9.24 17.93a26 26 0 0 0 14.44 5.73l1-2.39a27.9 27.9 0 0 1-14.8-5.74 28.21 28.21 0 0 1-9.88-15.49" fill="#c8deff"/>
      <path d="M73 200.89a167.94 167.94 0 0 1 16.48-52.53c7.29-14.29 13.34-25.75 25.83-30.16 5.82-2 12.89-1 27 1.11 21.1 3.17 35.67 5.56 44 17.21 1.6 2.23 2.67 4.82 4.82 10 2.85 6.86 4.83 13.71 8 31.63 1.14 6.53 2.94 18.26 4.3 28.35-19.13 10-38.68 16.91-57.81 27L75.05 202z" fill="url(#j)"/>
      <path d="M131.24 112.19c5.72 1 10.34 1.74 13.42 2.22 7.89 1.23 11.85 1.71 13.06 4.44a5.57 5.57 0 0 1-.1 4.07l-30-5.27z" fill="#ecf4ff"/>
      <path d="M129.55 117a24.16 24.16 0 0 0 1.59-3.6c3.3-9.53.11-18-.35-22.52l-1.88-8.78s23.44-1 23.44-29.59a24 24 0 0 1 14.71 3.42c7.92 5 11.83 15.17 11 25.5.14-1.75 2.56-3.63 4-6.47a42.62 42.62 0 0 0 4.42-19c0-17-18.87-17-18.87-17l-45.9 11.51a4.56 4.56 0 0 0-3.36 3.53c-1.3 11.34-5 19.63-9.24 25.77-7.2 10.37-13.55 11-19.59 22.12-2 3.76-9.11 16.95-3.18 25.93 4.09 6.21 12.23 7.11 14.17 7.32 14.47 1.6 24.65-11.46 25.48-12.57" fill="#0064ff"/>
      <path d="M136.94 80.21a7.39 7.39 0 0 0-14.77 0 12.13 12.13 0 0 0 3.31 7.85 13 13 0 0 0 3.8 2.55l1.89.32z" fill="#fff"/>
      <path fill="#6ca4ff" d="M166.79 167.5l-1.71 56.79 7.77-3.23-6.06-53.56z"/>
    </g>
    <circle cx="246.26" cy="189.12" r="4.31" fill="#fff"/>
    <circle cx="246.21" cy="189" r="4.29" fill="#fefefe"/>
    <circle cx="246.14" cy="188.86" r="4.28" fill="#fdfdfe"/>
    <circle cx="246.06" cy="188.7" r="4.26" fill="#fcfcfd"/>
    <circle cx="245.96" cy="188.52" r="4.24" fill="#fbfcfc"/>
    <circle cx="245.85" cy="188.33" r="4.23" fill="#fafbfc"/>
    <circle cx="245.73" cy="188.12" r="4.21" fill="#f9fafb"/>
    <circle cx="245.59" cy="187.9" r="4.19" fill="#f8f9fa"/>
    <circle cx="245.43" cy="187.67" r="4.18" fill="#f7f8fa"/>
    <circle cx="245.26" cy="187.43" r="4.16" fill="#f6f7f9"/>
    <circle cx="245.07" cy="187.18" r="4.14" fill="#f5f6f8"/>
    <circle cx="244.86" cy="186.92" r="4.13" fill="#f4f5f7"/>
    <circle cx="244.63" cy="186.65" r="4.11" fill="#f3f5f7"/>
    <circle cx="244.39" cy="186.39" r="4.09" fill="#f2f4f6"/>
    <circle cx="244.12" cy="186.11" r="4.08" fill="#f1f3f5"/>
    <circle cx="243.84" cy="185.84" r="4.06" fill="#f0f2f5"/>
    <circle cx="243.53" cy="185.57" r="4.04" fill="#eff1f4"/>
    <circle cx="243.2" cy="185.3" r="4.03" fill="#eef0f3"/>
    <circle cx="242.85" cy="185.03" r="4.01" fill="#edeff3"/>
    <circle cx="242.48" cy="184.76" r="3.99" fill="#eceff2"/>
    <circle cx="242.08" cy="184.5" r="3.98" fill="#ebeef1"/>
    <circle cx="241.66" cy="184.25" r="3.96" fill="#eaedf1"/>
    <circle cx="241.22" cy="184.01" r="3.94" fill="#eaecf0"/>
    <circle cx="240.75" cy="183.78" r="3.93" fill="#e9ebef"/>
    <circle cx="240.28" cy="183.57" r="3.91" fill="#e8eaef"/>
    <circle cx="239.84" cy="183.39" r="3.89" fill="#e7e9ee"/>
    <circle cx="239.4" cy="183.24" r="3.88" fill="#e6e9ed"/>
    <circle cx="238.97" cy="183.11" r="3.86" fill="#e5e8ed"/>
    <circle cx="238.55" cy="182.99" r="3.84" fill="#e4e7ec"/>
    <circle cx="238.13" cy="182.9" r="3.83" fill="#e3e6eb"/>
    <circle cx="237.72" cy="182.82" r="3.81" fill="#e2e5eb"/>
    <circle cx="237.33" cy="182.76" r="3.79" fill="#e1e4ea"/>
    <circle cx="236.94" cy="182.72" r="3.78" fill="#e0e3e9"/>
    <circle cx="236.57" cy="182.69" r="3.76" fill="#dfe3e9"/>
    <circle cx="236.22" cy="182.67" r="3.74" fill="#dee2e8"/>
    <circle cx="235.87" cy="182.66" r="3.73" fill="#dde1e7"/>
    <circle cx="235.54" cy="182.66" r="3.71" fill="#dce0e6"/>
    <circle cx="235.23" cy="182.67" r="3.69" fill="#dbdfe6"/>
    <circle cx="234.94" cy="182.69" r="3.68" fill="#dadee5"/>
    <circle cx="234.66" cy="182.71" r="3.66" fill="#d9dde4"/>
    <circle cx="234.41" cy="182.74" r="3.64" fill="#d8dce4"/>
    <circle cx="234.17" cy="182.77" r="3.63" fill="#d7dce3"/>
    <circle cx="233.96" cy="182.8" r="3.61" fill="#d6dbe2"/>
    <circle cx="233.77" cy="182.83" r="3.59" fill="#d5dae2"/>
    <circle cx="233.6" cy="182.86" r="3.58" fill="#d4d9e1"/>
    <circle cx="244.3" cy="192.49" r="4.31" fill="#fff"/>
    <circle cx="244.24" cy="192.36" r="4.29" fill="#fefefe"/>
    <circle cx="244.17" cy="192.22" r="4.28" fill="#fdfdfe"/>
    <circle cx="244.09" cy="192.06" r="4.26" fill="#fcfcfd"/>
    <circle cx="244" cy="191.88" r="4.24" fill="#fbfcfc"/>
    <circle cx="243.89" cy="191.69" r="4.23" fill="#fafbfc"/>
    <circle cx="243.76" cy="191.48" r="4.21" fill="#f9fafb"/>
    <circle cx="243.62" cy="191.26" r="4.19" fill="#f8f9fa"/>
    <circle cx="243.47" cy="191.03" r="4.18" fill="#f7f8fa"/>
    <circle cx="243.29" cy="190.79" r="4.16" fill="#f6f7f9"/>
    <circle cx="243.1" cy="190.54" r="4.14" fill="#f5f6f8"/>
    <circle cx="242.9" cy="190.28" r="4.13" fill="#f4f5f7"/>
    <circle cx="242.67" cy="190.02" r="4.11" fill="#f3f5f7"/>
    <circle cx="242.42" cy="189.75" r="4.09" fill="#f2f4f6"/>
    <circle cx="242.16" cy="189.48" r="4.08" fill="#f1f3f5"/>
    <circle cx="241.87" cy="189.2" r="4.06" fill="#f0f2f5"/>
    <circle cx="241.57" cy="188.93" r="4.04" fill="#eff1f4"/>
    <circle cx="241.24" cy="188.66" r="4.03" fill="#eef0f3"/>
    <circle cx="240.89" cy="188.39" r="4.01" fill="#edeff3"/>
    <circle cx="240.52" cy="188.13" r="3.99" fill="#eceff2"/>
    <circle cx="240.12" cy="187.87" r="3.98" fill="#ebeef1"/>
    <circle cx="239.7" cy="187.62" r="3.96" fill="#eaedf1"/>
    <circle cx="239.26" cy="187.37" r="3.94" fill="#eaecf0"/>
    <circle cx="238.79" cy="187.14" r="3.93" fill="#e9ebef"/>
    <circle cx="238.32" cy="186.93" r="3.91" fill="#e8eaef"/>
    <circle cx="237.88" cy="186.75" r="3.89" fill="#e7e9ee"/>
    <circle cx="237.44" cy="186.6" r="3.88" fill="#e6e9ed"/>
    <circle cx="237.01" cy="186.47" r="3.86" fill="#e5e8ed"/>
    <circle cx="236.58" cy="186.36" r="3.84" fill="#e4e7ec"/>
    <circle cx="236.17" cy="186.26" r="3.83" fill="#e3e6eb"/>
    <circle cx="235.76" cy="186.19" r="3.81" fill="#e2e5eb"/>
    <circle cx="235.37" cy="186.13" r="3.79" fill="#e1e4ea"/>
    <circle cx="234.98" cy="186.08" r="3.78" fill="#e0e3e9"/>
    <circle cx="234.61" cy="186.05" r="3.76" fill="#dfe3e9"/>
    <circle cx="234.25" cy="186.03" r="3.74" fill="#dee2e8"/>
    <circle cx="233.91" cy="186.02" r="3.73" fill="#dde1e7"/>
    <circle cx="233.58" cy="186.02" r="3.71" fill="#dce0e6"/>
    <circle cx="233.27" cy="186.03" r="3.69" fill="#dbdfe6"/>
    <circle cx="232.98" cy="186.05" r="3.68" fill="#dadee5"/>
    <circle cx="232.7" cy="186.07" r="3.66" fill="#d9dde4"/>
    <circle cx="232.45" cy="186.1" r="3.64" fill="#d8dce4"/>
    <circle cx="232.21" cy="186.13" r="3.63" fill="#d7dce3"/>
    <circle cx="232" cy="186.16" r="3.61" fill="#d6dbe2"/>
    <circle cx="231.81" cy="186.19" r="3.59" fill="#d5dae2"/>
    <circle cx="231.64" cy="186.22" r="3.58" fill="#d4d9e1"/>
    <circle cx="240.42" cy="195.63" r="4.31" fill="#fff"/>
    <circle cx="240.36" cy="195.51" r="4.29" fill="#fefefe"/>
    <circle cx="240.29" cy="195.37" r="4.28" fill="#fdfdfe"/>
    <circle cx="240.21" cy="195.21" r="4.26" fill="#fcfcfd"/>
    <circle cx="240.11" cy="195.03" r="4.24" fill="#fbfcfc"/>
    <circle cx="240" cy="194.84" r="4.23" fill="#fafbfc"/>
    <circle cx="239.88" cy="194.63" r="4.21" fill="#f9fafb"/>
    <circle cx="239.74" cy="194.41" r="4.19" fill="#f8f9fa"/>
    <circle cx="239.58" cy="194.18" r="4.18" fill="#f7f8fa"/>
    <circle cx="239.41" cy="193.93" r="4.16" fill="#f6f7f9"/>
    <circle cx="239.22" cy="193.68" r="4.14" fill="#f5f6f8"/>
    <circle cx="239.01" cy="193.42" r="4.13" fill="#f4f5f7"/>
    <circle cx="238.79" cy="193.16" r="4.11" fill="#f3f5f7"/>
    <circle cx="238.54" cy="192.89" r="4.09" fill="#f2f4f6"/>
    <circle cx="238.28" cy="192.62" r="4.08" fill="#f1f3f5"/>
    <circle cx="237.99" cy="192.35" r="4.06" fill="#f0f2f5"/>
    <circle cx="237.68" cy="192.08" r="4.04" fill="#eff1f4"/>
    <circle cx="237.36" cy="191.8" r="4.03" fill="#eef0f3"/>
    <circle cx="237.01" cy="191.54" r="4.01" fill="#edeff3"/>
    <circle cx="236.63" cy="191.27" r="3.99" fill="#eceff2"/>
    <circle cx="236.24" cy="191.01" r="3.98" fill="#ebeef1"/>
    <circle cx="235.82" cy="190.76" r="3.96" fill="#eaedf1"/>
    <circle cx="235.37" cy="190.52" r="3.94" fill="#eaecf0"/>
    <circle cx="234.9" cy="190.28" r="3.93" fill="#e9ebef"/>
    <circle cx="234.44" cy="190.08" r="3.91" fill="#e8eaef"/>
    <circle cx="233.99" cy="189.9" r="3.89" fill="#e7e9ee"/>
    <circle cx="233.56" cy="189.75" r="3.88" fill="#e6e9ed"/>
    <circle cx="233.12" cy="189.61" r="3.86" fill="#e5e8ed"/>
    <circle cx="232.7" cy="189.5" r="3.84" fill="#e4e7ec"/>
    <circle cx="232.28" cy="189.41" r="3.83" fill="#e3e6eb"/>
    <circle cx="231.88" cy="189.33" r="3.81" fill="#e2e5eb"/>
    <circle cx="231.48" cy="189.27" r="3.79" fill="#e1e4ea"/>
    <circle cx="231.1" cy="189.23" r="3.78" fill="#e0e3e9"/>
    <circle cx="230.73" cy="189.2" r="3.76" fill="#dfe3e9"/>
    <circle cx="230.37" cy="189.18" r="3.74" fill="#dee2e8"/>
    <circle cx="230.02" cy="189.17" r="3.73" fill="#dde1e7"/>
    <circle cx="229.7" cy="189.17" r="3.71" fill="#dce0e6"/>
    <circle cx="229.39" cy="189.18" r="3.69" fill="#dbdfe6"/>
    <circle cx="229.09" cy="189.2" r="3.68" fill="#dadee5"/>
    <circle cx="228.82" cy="189.22" r="3.66" fill="#d9dde4"/>
    <circle cx="228.56" cy="189.24" r="3.64" fill="#d8dce4"/>
    <circle cx="228.33" cy="189.27" r="3.63" fill="#d7dce3"/>
    <circle cx="228.11" cy="189.3" r="3.61" fill="#d6dbe2"/>
    <circle cx="227.92" cy="189.33" r="3.59" fill="#d5dae2"/>
    <circle cx="227.76" cy="189.36" r="3.58" fill="#d4d9e1"/>
    <path d="M231.46 180l-11.57 7.86a14.14 14.14 0 0 0-5.4 7l-2.49 7.23 12.72-5.9z" fill="#d4d9e1"/>
    <path d="M230.59 199.69a4.31 4.31 0 1 1 5 3.47 4.31 4.31 0 0 1-5-3.47z" fill="#fff"/>
    <path d="M230.55 199.57a4.29 4.29 0 1 1 5 3.45 4.3 4.3 0 0 1-5-3.45z" fill="#fefefe"/>
    <path d="M230.5 199.42a4.28 4.28 0 1 1 5 3.45 4.27 4.27 0 0 1-5-3.45z" fill="#fdfdfe"/>
    <path d="M230.44 199.26a4.26 4.26 0 1 1 4.95 3.43 4.26 4.26 0 0 1-4.95-3.43z" fill="#fcfcfd"/>
    <path d="M230.36 199.08a4.24 4.24 0 1 1 4.93 3.42 4.24 4.24 0 0 1-4.93-3.42z" fill="#fbfcfc"/>
    <path d="M230.26 198.88a4.23 4.23 0 1 1 4.91 3.41 4.22 4.22 0 0 1-4.91-3.41z" fill="#fafbfc"/>
    <path d="M230.16 198.67a4.21 4.21 0 1 1 4.89 3.39 4.19 4.19 0 0 1-4.89-3.39z" fill="#f9fafb"/>
    <path d="M230 198.45a4.19 4.19 0 1 1 4.87 3.38 4.19 4.19 0 0 1-4.87-3.38z" fill="#f8f9fa"/>
    <path d="M229.89 198.21a4.18 4.18 0 1 1 4.86 3.37 4.17 4.17 0 0 1-4.86-3.37z" fill="#f7f8fa"/>
    <path d="M229.74 198a4.16 4.16 0 1 1 4.83 3.35 4.15 4.15 0 0 1-4.83-3.35z" fill="#f6f7f9"/>
    <path d="M229.56 197.71a4.15 4.15 0 1 1 4.82 3.34 4.15 4.15 0 0 1-4.82-3.34z" fill="#f5f6f8"/>
    <path d="M229.37 197.45a4.13 4.13 0 1 1 4.8 3.33 4.13 4.13 0 0 1-4.8-3.33z" fill="#f4f5f7"/>
    <path d="M229.16 197.19a4.11 4.11 0 1 1 4.78 3.31 4.1 4.1 0 0 1-4.78-3.31z" fill="#f3f5f7"/>
    <path d="M228.93 196.91a4.09 4.09 0 1 1 4.76 3.3 4.1 4.1 0 0 1-4.76-3.3z" fill="#f2f4f6"/>
    <path d="M228.68 196.64a4.08 4.08 0 1 1 4.74 3.28 4.07 4.07 0 0 1-4.74-3.28z" fill="#f1f3f5"/>
    <path d="M228.41 196.36a4.06 4.06 0 1 1 4.72 3.27 4.06 4.06 0 0 1-4.72-3.27z" fill="#f0f2f5"/>
    <path d="M228.12 196.09a4 4 0 1 1 4.7 3.26 4 4 0 0 1-4.7-3.26z" fill="#eff1f4"/>
    <path d="M227.81 195.81a4 4 0 1 1 4.68 3.25 4 4 0 0 1-4.68-3.25z" fill="#eef0f3"/>
    <path d="M227.48 195.54a4 4 0 1 1 4.66 3.23 4 4 0 0 1-4.66-3.23z" fill="#edeff3"/>
    <path d="M227.12 195.28a4 4 0 1 1 4.64 3.21 4 4 0 0 1-4.64-3.21z" fill="#eceff2"/>
    <path d="M226.74 195a4 4 0 1 1 4.62 3.21 4 4 0 0 1-4.62-3.21z" fill="#ebeef1"/>
    <path d="M226.34 194.76a4 4 0 1 1 4.6 3.19 4 4 0 0 1-4.6-3.19z" fill="#eaedf1"/>
    <path d="M225.91 194.51a3.94 3.94 0 1 1 4.58 3.18 3.93 3.93 0 0 1-4.58-3.18z" fill="#eaecf0"/>
    <path d="M225.46 194.28a3.93 3.93 0 1 1 4.56 3.16 3.92 3.92 0 0 1-4.56-3.16z" fill="#e9ebef"/>
    <path d="M225 194.07a3.91 3.91 0 1 1 4.54 3.15 3.9 3.9 0 0 1-4.54-3.15z" fill="#e8eaef"/>
    <path d="M224.58 193.89a3.89 3.89 0 1 1 4.53 3.13 3.89 3.89 0 0 1-4.53-3.13z" fill="#e7e9ee"/>
    <path d="M224.16 193.73a3.88 3.88 0 1 1 4.5 3.12 3.87 3.87 0 0 1-4.5-3.12z" fill="#e6e9ed"/>
    <path d="M223.74 193.59a3.86 3.86 0 1 1 4.49 3.11 3.86 3.86 0 0 1-4.49-3.11z" fill="#e5e8ed"/>
    <circle cx="227.12" cy="192.8" r="3.84" transform="matrix(.00262 -1 1 .00262 33.72 419.4)" fill="#e4e7ec"/>
    <circle cx="226.7" cy="192.7" r="3.82" transform="matrix(.00244 -1 1 .00244 33.44 418.93)" fill="#e3e6eb"/>
    <circle cx="226.3" cy="192.63" r="3.81" transform="matrix(.00227 -1 1 .00227 33.14 418.47)" fill="#e2e5eb"/>
    <circle cx="225.9" cy="192.57" r="3.79" transform="matrix(.0021 -1 1 .0021 32.84 418.05)" fill="#e1e4ea"/>
    <circle cx="225.52" cy="192.52" r="3.77" transform="matrix(.0021 -1 1 .0021 32.54 417.65)" fill="#e0e3e9"/>
    <circle cx="225.14" cy="192.49" r="3.76" transform="matrix(.00192 -1 1 .00192 32.24 417.28)" fill="#dfe3e9"/>
    <circle cx="224.79" cy="192.47" r="3.74" transform="rotate(-89.9 224.79415794 192.47211147)" fill="#dee2e8"/>
    <circle cx="224.44" cy="192.46" r="3.72" transform="matrix(.00157 -1 1 .00157 31.64 416.61)" fill="#dde1e7"/>
    <circle cx="224.12" cy="192.47" r="3.71" transform="matrix(.0014 -1 1 .0014 31.34 416.32)" fill="#dce0e6"/>
    <circle cx="223.8" cy="192.47" r="3.69" transform="matrix(.00122 -1 1 .00122 31.06 416.05)" fill="#dbdfe6"/>
    <circle cx="223.51" cy="192.49" r="3.67" transform="matrix(.00105 -1 1 .00105 30.79 415.8)" fill="#dadee5"/>
    <circle cx="223.24" cy="192.51" r="3.66" fill="#d9dde4"/>
    <circle cx="222.98" cy="192.54" r="3.64" fill="#d8dce4"/>
    <circle cx="222.75" cy="192.57" r="3.63" fill="#d7dce3"/>
    <circle cx="222.53" cy="192.6" r="3.61" fill="#d6dbe2"/>
    <circle cx="222.34" cy="192.63" r="3.59" fill="#d5dae2"/>
    <circle cx="222.18" cy="192.66" r="3.58" fill="#d4d9e1"/>
  </g>
</svg>
