<svg xmlns="http://www.w3.org/2000/svg" width="28" height="28">
  <defs>
    <linearGradient id="a" x1="16.4933252%" x2="87.7489953%" y1="11.3683176%" y2="100%">
      <stop offset="0%" stop-color="#A970FF"/>
      <stop offset="100%" stop-color="#418CFF"/>
    </linearGradient>
  </defs>
  <path fill="url(#a)" fill-rule="evenodd" d="M7 6c.55228475 0 1-.44771525 1-1s-.44771525-1-1-1-1 .44771525-1 1 .44771525 1 1 1zm18 14.14V16c0-1.1045695-.8954305-2-2-2h-8v-4h9c1.1045695 0 2-.8954305 2-2V2c0-1.1045695-.8954305-2-2-2H4C2.8954305 0 2 .8954305 2 2v6c0 1.1045695.8954305 2 2 2h9v4H5c-1.1045695 0-2 .8954305-2 2v4.14c-1.95030672.503567-3.22192522 2.3787867-2.96811879 4.3770005C.28568764 26.5152143 1.98573188 28.0129833 4 28.0129833s3.71431236-1.497769 3.96811879-3.4959828C8.22192521 22.5187867 6.95030672 20.643567 5 20.14V16h8v4h-3v8h8v-8h-3v-4h8v4.14c-1.9503067.503567-3.2219252 2.3787867-2.9681188 4.3770005.2538064 1.9982138 1.9538507 3.4959828 3.9681188 3.4959828s3.7143124-1.497769 3.9681188-3.4959828C28.2219252 22.5187867 26.9503067 20.643567 25 20.14zM4 2h20v6H4V2zm2 22c0 1.1045695-.8954305 2-2 2s-2-.8954305-2-2 .8954305-2 2-2 2 .8954305 2 2zm10 2h-4v-4h4v4zm8 0c-1.1045695 0-2-.8954305-2-2s.8954305-2 2-2 2 .8954305 2 2-.8954305 2-2 2z"/>
</svg>
