<svg xmlns="http://www.w3.org/2000/svg" width="28" height="28">
  <defs>
    <linearGradient id="b" x1="16.5458113%" x2="87.6898638%" y1="11.3683176%" y2="100%">
      <stop offset="0%" stop-color="#A970FF"/>
      <stop offset="100%" stop-color="#418CFF"/>
    </linearGradient>
  </defs>
  <path fill="url(#b)" fill-rule="evenodd" id="a" d="M5.26223 21.32327l7.99023-7.99023 1.4142 1.4142-7.99023 7.99023-1.4142-1.4142zM15 28c-.1 0-.2 0-.4-.1-.3-.1-.6-.4-.6-.8l-1-7 2-.3.8 5.3 3.3-2.6V15c0-.3.1-.5.3-.7l4.1-4c1.7-1.8 2.6-4 2.6-6.4V2h-1.9c-2.3 0-4.7 1-6.3 2.6l-4.1 4.1c-.3.2-.5.3-.8.3H5.5l-2.6 3.3 5.3.8-.3 2-7-1c-.4-.1-.7-.3-.8-.6-.1-.3-.1-.7.1-1l4-5c.2-.4.5-.5.8-.5h7.6l3.8-3.8c2-2 4.9-3.2 7.7-3.2H26c1.2 0 2 .8 2 2v1.9c0 2.9-1.1 5.6-3.2 7.8L21 15.4V23c0 .3-.1.6-.4.8l-5 4c-.2.1-.4.2-.6.2z"/>
</svg>
