<svg xmlns="http://www.w3.org/2000/svg" xmlns:xlink="http://www.w3.org/1999/xlink" width="28" height="28">
  <defs>
    <linearGradient id="b" x1="32.8894633%" x2="69.2769224%" y1="11.3683176%" y2="100%">
      <stop offset="0%" stop-color="#A970FF" />
      <stop offset="100%" stop-color="#418CFF" />
    </linearGradient>
  </defs>
  <path fill="url(#b)" fill-rule="evenodd" id="a"
    d="M28,26 L28,28 L0,28 L0,26 L28,26 Z M13.66,0.06 C13.8797076,-0.0194327525 14.1202924,-0.0194327525 14.34,0.06 L14.34,0.06 L25.34,4.06 C25.7359474,4.2031502 26,4.57896992 26,5 L26,5 L26,8 C26,8.55228475 25.5522847,9 25,9 L25,9 L24,9 L24,22 L26,22 L26,24 L2,24 L2,22 L4,22 L4,9 L3,9 C2.44771525,9 2,8.55228475 2,8 L2,8 L2,5 C2,4.57896992 2.26405256,4.2031502 2.66,4.06 L2.66,4.06 Z M16,9 L12,9 L12,22 L16,22 L16,9 Z M10,9 L6,9 L6,22 L10,22 L10,9 Z M22,9 L18,9 L18,22 L22,22 L22,9 Z M14,2.06 L4,5.7 L4,7 L24,7 L24,5.7 L14,2.06 Z"
    id="path-2"></path>
</svg>
