<svg xmlns="http://www.w3.org/2000/svg" xmlns:xlink="http://www.w3.org/1999/xlink" width="28" height="28">
  <defs>
    <linearGradient id="b" x1="32.8894633%" x2="69.2769224%" y1="11.3683176%" y2="100%">
      <stop offset="0%" stop-color="#A970FF" />
      <stop offset="100%" stop-color="#418CFF" />
    </linearGradient>

  </defs>
  <path fill="url(#b)" fill-rule="evenodd" id="a"
    d="M26,0 C27.1041125,0.00110245966 27.9988975,0.895887477 28,2 L28,2 L28,26 C27.9983479,27.1038844 27.1038844,27.9983479 26,28 L26,28 L2,28 C0.895887477,27.9988975 0.00110245966,27.1041125 0,26 L0,26 L0,2 C0.00110245966,0.895887477 0.895887477,0.00110245966 2,0 L2,0 Z M26,11 L2,11 L2,26 L26.002,26 L26,11 Z M24,19 L24,24 L22,24 L22,19 L24,19 Z M20,14 L20,24 L18,24 L18,14 L20,14 Z M9,14 C11.7614237,14 14,16.2385763 14,19 C14,21.7614237 11.7614237,24 9,24 C6.23994685,23.9966939 4.00330612,21.7600532 4,19 L6,19 C6,20.6568542 7.34314575,22 9,22 C10.6568542,22 12,20.6568542 12,19 C12,17.3431458 10.6568542,16 9,16 L9,14 Z M26,2 L12,2 L12,9 L26,9 L26,2 Z M10,2 L2,2 L2,9 L10,9 L10,2 Z"
    id="path-2"></path>
</svg>
