<svg xmlns="http://www.w3.org/2000/svg" xmlns:xlink="http://www.w3.org/1999/xlink" width="30" height="28">
  <defs>
    <linearGradient id="b" x1="32.8894633%" x2="69.2769224%" y1="11.3683176%" y2="100%">
      <stop offset="0%" stop-color="#A970FF" />
      <stop offset="100%" stop-color="#418CFF" />
    </linearGradient>
  </defs>
  <path fill="url(#b)" fill-rule="evenodd" id="a"
    d="M13,16 C16.8659932,16 20,19.1340068 20,23 L20,28 L18,28 L18,23 C18,20.2385763 15.7614237,18 13,18 L7,18 C4.23857625,18 2,20.2385763 2,23 L2,28 L0,28 L0,23 C0,19.1340068 3.13400675,16 7,16 L13,16 Z M26,8 L26,12 L30,12 L30,14 L26,14 L26,18 L24,18 L24,14 L20,14 L20,12 L24,12 L24,8 L26,8 Z M10,7.10542736e-15 C13.8659932,7.10542736e-15 17,3.13400675 17,7 C17,10.8659932 13.8659932,14 10,14 C6.13400675,14 3,10.8659932 3,7 C3,3.13400675 6.13400675,7.10542736e-15 10,7.10542736e-15 Z M10,2 C7.23857625,2 5,4.23857625 5,7 C5,9.76142375 7.23857625,12 10,12 C12.7614237,12 15,9.76142375 15,7 C15,4.23857625 12.7614237,2 10,2 Z"
    id="path-2"></path>
</svg>
