<svg xmlns="http://www.w3.org/2000/svg" width="28" height="29">
  <defs>
    <linearGradient id="a" x1="18.7366369%" x2="85.2216552%" y1="11.3683176%" y2="100%">
      <stop offset="0%" stop-color="#A970FF"/>
      <stop offset="100%" stop-color="#418CFF"/>
    </linearGradient>
  </defs>
  <path fill="url(#a)" fill-rule="evenodd" d="M6 8C3.790861 8 2 6.209139 2 4s1.790861-4 4-4 4 1.790861 4 4c0 1.06086596-.42142736 2.07828161-1.17157288 2.82842712C8.07828161 7.57857264 7.06086596 8 6 8zm0-6c-1.1045695 0-2 .8954305-2 2s.8954305 2 2 2 2-.8954305 2-2c0-.53043298-.21071368-1.03914081-.58578644-1.41421356C7.03914081 2.21071368 6.53043298 2 6 2zm16 6c-2.209139 0-4-1.790861-4-4s1.790861-4 4-4 4 1.790861 4 4c0 1.06086596-.4214274 2.07828161-1.1715729 2.82842712C24.0782816 7.57857264 23.060866 8 22 8zm0-6c-1.1045695 0-2 .8954305-2 2s.8954305 2 2 2 2-.8954305 2-2c0-.53043298-.2107137-1.03914081-.5857864-1.41421356C23.0391408 2.21071368 22.530433 2 22 2zm2 27h-4c-1.1045695 0-2-.8954305-2-2v-7h2v7h4v-9h2v-6c0-.5522847-.4477153-1-1-1h-6.42L14 19l-4.58-8H3c-.55228475 0-1 .4477153-1 1v6h2v9h4v-7h2v7c0 1.1045695-.8954305 2-2 2H4c-1.1045695 0-2-.8954305-2-2v-7c-1.1045695 0-2-.8954305-2-2v-6c0-1.6568542 1.34314575-3 3-3h7.58L14 15l3.42-6H25c1.6568542 0 3 1.3431458 3 3v6c0 1.1045695-.8954305 2-2 2v7c0 1.1045695-.8954305 2-2 2z"/>
</svg>
