<svg xmlns="http://www.w3.org/2000/svg" xmlns:xlink="http://www.w3.org/1999/xlink" width="29" height="29">
  <defs>
    <linearGradient id="b" x1="16.4636628%" x2="87.7824133%" y1="11.4039843%" y2="99.9538374%">
      <stop offset="0%" stop-color="#A970FF"/>
      <stop offset="100%" stop-color="#418CFF"/>
    </linearGradient>
  </defs>
  <path fill="url(#b)" fill-rule="evenodd" id="a" d="M24 20.0215982c-.7052618.0103425-1.3952488.2069888-2 .57l-3.09-3.09c1.4783267-2.0808267 1.4783267-4.8691732 0-6.95L22 7.45159821c1.7361982 1.01688242 3.9575253.585823 5.1873683-1.00663428 1.229843-1.59245727 1.0853712-3.85060567-.3373786-5.27335547S23.1690916-.39561306 21.5766343.83422994C19.984177 2.06407295 19.5531176 4.28540003 20.57 6.02159821l-3.09 3.09c-2.0808267-1.47832673-4.8691733-1.47832673-6.95 0l-3.1-3.09c1.01688242-1.73619818.58582299-3.95752526-1.00663428-5.18736827-1.59245728-1.229843-3.85060567-1.08537127-5.27335547.33737852-1.4227498 1.4227498-1.56722153 3.6808982-.33737852 5.27335547C2.04247473 8.03742121 4.26380182 8.46848063 6 7.45159821l3.09 3.08999999c-1.47832673 2.0808268-1.47832673 4.8691733 0 6.95l-3.09 3.1c-1.73619818-1.0168824-3.95752527-.585823-5.18736827 1.0066343-1.229843 1.5924573-1.08537128 3.8506057.33737852 5.2733555s3.68089819 1.5672215 5.27335547.3373785C8.01582299 25.9791235 8.44688242 23.7577964 7.43 22.0215982l3.09-3.09c2.0808267 1.4783267 4.8691733 1.4783267 6.95 0l3.1 3.09c-.9067261 1.5706487-.6432774 3.5547927.6418983 4.8344072 1.2851756 1.2796145 3.2704435 1.5344565 4.8371453.6209277 1.5667019-.9135288 2.3227469-2.766804 1.8421191-4.5155425C27.4105348 21.2126521 25.8135185 20.0060984 24 20.0215982zm0-17.99999999c1.1045695 0 2 .8954305 2 2s-.8954305 2-2 2-2-.8954305-2-2 .8954305-2 2-2zm-22 2c0-1.1045695.8954305-2 2-2s2 .8954305 2 2-.8954305 2-2 2c-.53043298 0-1.03914081-.21071368-1.41421356-.58578643C2.21071368 5.06073902 2 4.55203119 2 4.02159821zM4 26.0215982c-1.1045695 0-2-.8954305-2-2s.8954305-2 2-2 2 .8954305 2 2-.8954305 2-2 2zm10-8c-2.209139 0-4-1.790861-4-4s1.790861-4 4-4 4 1.790861 4 4c0 1.060866-.4214274 2.0782816-1.1715729 2.8284271-.7501455.7501456-1.7675611 1.1715729-2.8284271 1.1715729zm10 8c-1.1045695 0-2-.8954305-2-2s.8954305-2 2-2 2 .8954305 2 2-.8954305 2-2 2z"/>
</svg>
