<?xml version="1.0" encoding="UTF-8"?>
<svg width="28px" height="29px" viewBox="0 0 28 29" version="1.1" xmlns="http://www.w3.org/2000/svg" xmlns:xlink="http://www.w3.org/1999/xlink">
    <!-- Generator: Sketch 49.3 (51167) - http://www.bohemiancoding.com/sketch -->
    <title>diagram</title>
    <desc>Created with Sketch.</desc>
    <defs></defs>
    <g id="Icons" stroke="none" stroke-width="1" fill="none" fill-rule="evenodd">
        <g id="System-Icons" transform="translate(-137.000000, -226.000000)">
            <g id="diagram" transform="translate(135.000000, 224.000000)">
                <g id="artwork" transform="translate(1.000000, 1.000000)" fill="#ffffff" fill-rule="nonzero">
                    <path d="M14,13 L14,2 C14.0178819,1.72969704 13.9182815,1.46482024 13.7267306,1.27326939 C13.5351798,1.08171855 13.270303,0.98211806 13,1 C6.372583,1 1,6.372583 1,13 C0.98211806,13.270303 1.08171855,13.5351798 1.27326939,13.7267306 C1.46482024,13.9182815 1.72969704,14.0178819 2,14 L13,14 C13.270303,14.0178819 13.5351798,13.9182815 13.7267306,13.7267306 C13.9182815,13.5351798 14.0178819,13.270303 14,13 Z M12,12 L3,12 C3.49819717,7.25106328 7.25106328,3.49819717 12,3 L12,12 Z" id="Shape"></path>
                    <path d="M17,3.1 L17,5.1 C22.7911555,5.65054882 27.1524317,10.6149428 26.9524532,16.4287706 C26.7524747,22.2425984 22.060389,26.8955834 16.2450913,27.0469045 C10.4297936,27.1982256 5.50206884,22.7955597 5,17 L3,17 C3.50126984,23.9054772 9.32679819,29.2064056 16.2488053,29.0557251 C23.1708123,28.9050446 28.760147,23.3556338 28.9604431,16.4348847 C29.1607392,9.51413562 23.9017065,3.65075795 17,3.1 Z" id="Shape"></path>
                </g>
                <g id="transparent_box">
                    <rect id="Rectangle-path" x="0" y="0" width="32" height="32"></rect>
                </g>
            </g>
        </g>
    </g>
</svg>