<?xml version="1.0" encoding="UTF-8"?>
<svg width="188px" height="110px" viewBox="0 0 188 110" version="1.1" xmlns="http://www.w3.org/2000/svg" xmlns:xlink="http://www.w3.org/1999/xlink">
    <!-- Generator: Sketch 53.2 (72643) - https://sketchapp.com -->
    <title>empty_nodes</title>
    <desc>Created with Sketch.</desc>
    <defs>
        <linearGradient x1="100%" y1="50%" x2="0%" y2="50%" id="linearGradient-1">
            <stop stop-color="#50565B" offset="0%"></stop>
            <stop stop-color="#6E757C" offset="100%"></stop>
        </linearGradient>
    </defs>
    <g id="Page-1" stroke="none" stroke-width="1" fill="none" fill-rule="evenodd">
        <g id="empty_nodes" fill-rule="nonzero">
            <g id="Group" transform="translate(0.000000, 1.195652)">
                <ellipse id="Oval" fill="#373D42" cx="172.710843" cy="92.6630435" rx="3.96385542" ry="4.18478261"></ellipse>
                <ellipse id="Oval" fill="#373D42" cx="16.4216867" cy="12.5543478" rx="3.96385542" ry="4.18478261"></ellipse>
                <ellipse id="Oval" fill="#BB8EFF" cx="18.686747" cy="92.6630435" rx="2.8313253" ry="2.98913043"></ellipse>
                <ellipse id="Oval" fill="#373D42" cx="185.168675" cy="85.4891304" rx="2.8313253" ry="2.98913043"></ellipse>
                <ellipse id="Oval" fill="#FFA768" cx="174.409639" cy="106.413043" rx="2.26506024" ry="2.39130435"></ellipse>
                <ellipse id="Oval" fill="#D7306D" cx="182.903614" cy="11.3586957" rx="2.8313253" ry="2.98913043"></ellipse>
                <ellipse id="Oval" fill="#373D42" cx="2.8313253" cy="2.98913043" rx="2.8313253" ry="2.98913043"></ellipse>
                <ellipse id="Oval" fill="#373D42" cx="87.7710843" cy="102.228261" rx="2.8313253" ry="2.98913043"></ellipse>
            </g>
            <g id="Group" opacity="0.5" transform="translate(54.928602, 54.403522) rotate(-20.000000) translate(-54.928602, -54.403522) translate(14.723783, 11.957870)">
                <rect id="Rectangle" fill="#373D42" x="0" y="0" width="80.4096386" height="84.8913043" rx="1"></rect>
                <rect id="Rectangle" fill="url(#linearGradient-1)" x="9.06024096" y="9.56521739" width="53.2289157" height="10.7608696" rx="1"></rect>
                <rect id="Rectangle" fill="#6E757C" x="9.06024096" y="25.1086957" width="27.1807229" height="7.17391304" rx="1"></rect>
                <rect id="Rectangle" fill="#50565B" x="9.06024096" y="68.1521739" width="35.1084337" height="7.17391304" rx="1"></rect>
            </g>
            <path d="M89.5235635,11.5184177 L168.456558,12.9231874 C168.99519,12.9327734 169.429422,13.36732 169.438618,13.9059587 L170.844836,96.2720831 C170.854264,96.8242874 170.414257,97.27958 169.862052,97.2890077 C169.850432,97.2892061 169.838808,97.2892019 169.827188,97.2889951 L90.8941934,95.8842254 C90.3555614,95.8746394 89.9213294,95.4400928 89.9121333,94.901454 L88.505915,12.5353297 C88.4964874,11.9831254 88.9364947,11.5278328 89.488699,11.5184051 C89.5003197,11.5182067 89.511943,11.5182109 89.5235635,11.5184177 Z" id="Rectangle" fill="#23292E" transform="translate(129.675376, 54.403706) rotate(20.000000) translate(-129.675376, -54.403706) "></path>
            <g id="Group" opacity="0.5" transform="translate(129.675507, 54.402995) rotate(20.000000) translate(-129.675507, -54.402995) translate(89.470688, 11.957343)">
                <rect id="Rectangle" fill="#373D42" x="0" y="0" width="80.4096386" height="84.8913043" rx="1"></rect>
                <rect id="Rectangle" fill="url(#linearGradient-1)" x="9.06024096" y="9.56521739" width="53.2289157" height="10.7608696" rx="1"></rect>
                <polygon id="Path" fill="#6E757C" points="9.06024096 25.1086957 36.2409639 25.1086957 36.2409639 32.2826087 9.06024096 32.2826087"></polygon>
                <polygon id="Path" fill="#50565B" points="9.06024096 68.1521739 44.1686747 68.1521739 44.1686747 75.326087 9.06024096 75.326087"></polygon>
            </g>
            <g id="Group" transform="translate(52.096386, 7.173913)">
                <rect id="Rectangle" fill="#373D42" x="0" y="0" width="80.4096386" height="84.8913043" rx="1"></rect>
                <rect id="Rectangle" fill="url(#linearGradient-1)" x="9.06024096" y="9.56521739" width="53.2289157" height="10.7608696" rx="1"></rect>
                <rect id="Rectangle" fill="#6E757C" x="9.06024096" y="25.1086957" width="27.1807229" height="7.17391304" rx="1"></rect>
                <polygon id="Path" fill="#50565B" points="9.06024096 68.1521739 44.1686747 68.1521739 44.1686747 75.326087 9.06024096 75.326087"></polygon>
            </g>
            <g id="Group" transform="translate(101.927711, 76.521739)">
                <ellipse id="Oval" fill="#0F6FFF" cx="12.4578313" cy="13.1521739" rx="12.4578313" ry="13.1521739"></ellipse>
                <path d="M10.1927711,5.97826087 L6.79518072,5.97826087 C6.16970161,5.97826087 5.6626506,6.51357258 5.6626506,7.17391304 L5.6626506,10.7608696 C5.6626506,11.42121 6.16970161,11.9565217 6.79518072,11.9565217 L10.1927711,11.9565217 C10.8182502,11.9565217 11.3253012,11.42121 11.3253012,10.7608696 L11.3253012,7.17391304 C11.3253012,6.51357258 10.8182502,5.97826087 10.1927711,5.97826087 Z M10.1927711,10.7608696 L6.79518072,10.7608696 L6.79518072,7.17391304 L10.1927711,7.17391304 L10.1927711,10.7608696 Z M18.1204819,5.97826087 L14.7228916,5.97826087 C14.0974125,5.97826087 13.5903614,6.51357258 13.5903614,7.17391304 L13.5903614,10.7608696 C13.5903614,11.42121 14.0974125,11.9565217 14.7228916,11.9565217 L18.1204819,11.9565217 C18.745961,11.9565217 19.253012,11.42121 19.253012,10.7608696 L19.253012,7.17391304 C19.253012,6.51357258 18.745961,5.97826087 18.1204819,5.97826087 Z M18.1204819,10.7608696 L14.7228916,10.7608696 L14.7228916,7.17391304 L18.1204819,7.17391304 L18.1204819,10.7608696 Z M10.1927711,14.3478261 L6.79518072,14.3478261 C6.16970161,14.3478261 5.6626506,14.8831378 5.6626506,15.5434783 L5.6626506,19.1304348 C5.6626506,19.7907752 6.16970161,20.326087 6.79518072,20.326087 L10.1927711,20.326087 C10.8182502,20.326087 11.3253012,19.7907752 11.3253012,19.1304348 L11.3253012,15.5434783 C11.3253012,14.8831378 10.8182502,14.3478261 10.1927711,14.3478261 Z M10.1927711,19.1304348 L6.79518072,19.1304348 L6.79518072,15.5434783 L10.1927711,15.5434783 L10.1927711,19.1304348 Z M18.1204819,14.3478261 L14.7228916,14.3478261 C14.0974125,14.3478261 13.5903614,14.8831378 13.5903614,15.5434783 L13.5903614,19.1304348 C13.5903614,19.7907752 14.0974125,20.326087 14.7228916,20.326087 L18.1204819,20.326087 C18.745961,20.326087 19.253012,19.7907752 19.253012,19.1304348 L19.253012,15.5434783 C19.253012,14.8831378 18.745961,14.3478261 18.1204819,14.3478261 Z M18.1204819,19.1304348 L14.7228916,19.1304348 L14.7228916,15.5434783 L18.1204819,15.5434783 L18.1204819,19.1304348 Z" id="Shape" fill="#FFFFFF"></path>
            </g>
        </g>
    </g>
</svg>