<?xml version="1.0" encoding="UTF-8"?>
<svg width="200px" height="114px" viewBox="0 0 200 114" version="1.1" xmlns="http://www.w3.org/2000/svg" xmlns:xlink="http://www.w3.org/1999/xlink">
    <!-- Generator: Sketch 52.6 (67491) - http://www.bohemiancoding.com/sketch -->
    <title>Organizations Illustration</title>
    <desc>Created with Sketch.</desc>
    <defs>
        <linearGradient x1="100%" y1="50%" x2="0%" y2="50%" id="linearGradient-1">
            <stop stop-color="#50565B" offset="0%"></stop>
            <stop stop-color="#6E757C" offset="100%"></stop>
        </linearGradient>
        <filter x="-16.2%" y="-42.6%" width="132.4%" height="185.2%" filterUnits="objectBoundingBox" id="filter-2">
            <feOffset dx="0" dy="2" in="SourceAlpha" result="shadowOffsetOuter1"></feOffset>
            <feGaussianBlur stdDeviation="5" in="shadowOffsetOuter1" result="shadowBlurOuter1"></feGaussianBlur>
            <feColorMatrix values="0 0 0 0 0   0 0 0 0 0   0 0 0 0 0  0 0 0 0.5 0" type="matrix" in="shadowBlurOuter1" result="shadowMatrixOuter1"></feColorMatrix>
            <feMerge>
                <feMergeNode in="shadowMatrixOuter1"></feMergeNode>
                <feMergeNode in="SourceGraphic"></feMergeNode>
            </feMerge>
        </filter>
        <filter x="-36.4%" y="-36.4%" width="172.7%" height="172.7%" filterUnits="objectBoundingBox" id="filter-3">
            <feOffset dx="0" dy="2" in="SourceAlpha" result="shadowOffsetOuter1"></feOffset>
            <feGaussianBlur stdDeviation="1" in="shadowOffsetOuter1" result="shadowBlurOuter1"></feGaussianBlur>
            <feColorMatrix values="0 0 0 0 0   0 0 0 0 0   0 0 0 0 0  0 0 0 0.5 0" type="matrix" in="shadowBlurOuter1" result="shadowMatrixOuter1"></feColorMatrix>
            <feMerge>
                <feMergeNode in="shadowMatrixOuter1"></feMergeNode>
                <feMergeNode in="SourceGraphic"></feMergeNode>
            </feMerge>
        </filter>
    </defs>
    <g id="Handover" stroke="none" stroke-width="1" fill="none" fill-rule="evenodd">
        <g id="Organisations" transform="translate(-136.000000, -311.000000)" fill-rule="nonzero">
            <g id="Organizations" transform="translate(112.000000, 247.000000)">
                <g id="Organizations-Illustration" transform="translate(24.000000, 64.000000)">
                    <g id="Left-Card" opacity="0.5" transform="translate(76.952720, 57.655131) rotate(-20.000000) translate(-76.952720, -57.655131) translate(5.952720, 30.655131)">
                        <rect id="Rectangle" fill="#373D42" x="0" y="0" width="142" height="54" rx="1"></rect>
                        <rect id="Rectangle" fill="url(#linearGradient-1)" x="8" y="8" width="69" height="9" rx="1"></rect>
                        <rect id="Rectangle-Copy" fill="#6E757C" x="8" y="21" width="34" height="6" rx="1"></rect>
                        <rect id="Rectangle-Copy-2" fill="#50565B" x="8" y="40" width="34" height="6" rx="1"></rect>
                    </g>
                    <rect id="Opacity-Correction" fill="#23292E" transform="translate(123.952720, 52.655131) rotate(20.000000) translate(-123.952720, -52.655131) " x="52.9527199" y="25.6551309" width="142" height="54" rx="1"></rect>
                    <g id="Right-Card" opacity="0.5" transform="translate(123.952720, 52.655131) rotate(20.000000) translate(-123.952720, -52.655131) translate(52.952720, 25.655131)">
                        <rect id="Rectangle" fill="#373D42" x="0" y="0" width="142" height="54" rx="1"></rect>
                        <rect id="Rectangle" fill="url(#linearGradient-1)" x="8" y="8" width="69" height="9" rx="1"></rect>
                        <rect id="Rectangle-Copy" fill="#6E757C" x="8" y="21" width="34" height="6" rx="1"></rect>
                        <rect id="Rectangle-Copy-2" fill="#50565B" x="8" y="40" width="34" height="6"></rect>
                    </g>
                    <g id="Top-Card" filter="url(#filter-2)" transform="translate(27.000000, 35.000000)">
                        <rect id="Rectangle" fill="#373D42" x="0" y="0" width="142" height="54" rx="1"></rect>
                        <rect id="Rectangle" fill="url(#linearGradient-1)" x="8" y="8" width="69" height="9" rx="1"></rect>
                        <rect id="Rectangle-Copy" fill="#6E757C" x="8" y="21" width="34" height="6" rx="1"></rect>
                        <rect id="Rectangle-Copy-2" fill="#50565B" x="8" y="40" width="34" height="6" rx="1"></rect>
                    </g>
                    <g id="Icon" filter="url(#filter-3)" transform="translate(112.000000, 75.000000)">
                        <circle id="Oval" fill="#0F6FFF" cx="11" cy="11" r="11"></circle>
                        <g id="group" transform="translate(5.000000, 5.000000)" fill="#FFFFFF">
                            <path d="M9.2,4 C9.8627417,4 10.4,4.5372583 10.4,5.2 C10.4,5.8627417 9.8627417,6.4 9.2,6.4 C8.5372583,6.4 8,5.8627417 8,5.2 C8,4.5372583 8.5372583,4 9.2,4 Z M9.2,3.2 C8.0954305,3.2 7.2,4.0954305 7.2,5.2 C7.2,6.3045695 8.0954305,7.2 9.2,7.2 C10.3045695,7.2 11.2,6.3045695 11.2,5.2 C11.2,4.0954305 10.3045695,3.2 9.2,3.2 Z M12,11.2 L11.2,11.2 L11.2,10 C11.2,9.3372583 10.6627417,8.8 10,8.8 L8.4,8.8 C7.7372583,8.8 7.2,9.3372583 7.2,10 L7.2,11.2 L6.4,11.2 L6.4,10 C6.4,8.8954305 7.2954305,8 8.4,8 L10,8 C11.1045695,8 12,8.8954305 12,10 L12,11.2 Z M2.8,0.8 C3.4627417,0.8 4,1.3372583 4,2 C4,2.6627417 3.4627417,3.2 2.8,3.2 C2.1372583,3.2 1.6,2.6627417 1.6,2 C1.6,1.3372583 2.1372583,0.8 2.8,0.8 Z M2.8,-8.8817842e-16 C1.6954305,-7.99360578e-16 0.8,0.8954305 0.8,2 C0.8,3.1045695 1.6954305,4 2.8,4 C3.9045695,4 4.8,3.1045695 4.8,2 C4.8,1.46956702 4.58928632,0.960859195 4.21421356,0.585786438 C3.83914081,0.210713681 3.33043298,-1.77635684e-16 2.8,-8.8817842e-16 Z M5.6,8 L4.8,8 L4.8,6.8 C4.8,6.1372583 4.2627417,5.6 3.6,5.6 L2,5.6 C1.3372583,5.6 0.8,6.1372583 0.8,6.8 L0.8,8 L0,8 L0,6.8 C-1.77635684e-16,5.6954305 0.8954305,4.8 2,4.8 L3.6,4.8 C4.7045695,4.8 5.6,5.6954305 5.6,6.8 L5.6,8 Z" id="Shape"></path>
                        </g>
                    </g>
                    <g id="Dots">
                        <circle id="Oval-Copy-15" fill="#373D42" cx="162.5" cy="103.5" r="3.5"></circle>
                        <circle id="Oval-Copy-16" fill="#BB8EFF" cx="17.5" cy="35.5" r="3.5"></circle>
                        <circle id="Oval-Copy-17" fill="#373D42" cx="2.5" cy="94.5" r="2.5"></circle>
                        <circle id="Oval-Copy-18" fill="#373D42" cx="144.5" cy="111.5" r="2.5"></circle>
                        <circle id="Oval-Copy-19" fill="#FFA768" cx="152.5" cy="2.5" r="2.5"></circle>
                        <circle id="Oval-Copy-20" fill="#373D42" cx="19.5" cy="18.5" r="2.5"></circle>
                        <circle id="Oval-Copy-21" fill="#D7306D" cx="81.5" cy="98.5" r="2.5"></circle>
                    </g>
                </g>
            </g>
        </g>
    </g>
</svg>