<?xml version="1.0" encoding="UTF-8"?>
<svg width="175px" height="109px" viewBox="0 0 175 109" version="1.1" xmlns="http://www.w3.org/2000/svg" xmlns:xlink="http://www.w3.org/1999/xlink">
    <!-- Generator: Sketch 52.6 (67491) - http://www.bohemiancoding.com/sketch -->
    <title>Identities Illustration</title>
    <desc>Created with Sketch.</desc>
    <defs>
        <filter x="-32.4%" y="-32.4%" width="164.8%" height="164.8%" filterUnits="objectBoundingBox" id="filter-1">
            <feOffset dx="0" dy="2" in="SourceAlpha" result="shadowOffsetOuter1"></feOffset>
            <feGaussianBlur stdDeviation="5" in="shadowOffsetOuter1" result="shadowBlurOuter1"></feGaussianBlur>
            <feColorMatrix values="0 0 0 0 0   0 0 0 0 0   0 0 0 0 0  0 0 0 0.5 0" type="matrix" in="shadowBlurOuter1" result="shadowMatrixOuter1"></feColorMatrix>
            <feMerge>
                <feMergeNode in="shadowMatrixOuter1"></feMergeNode>
                <feMergeNode in="SourceGraphic"></feMergeNode>
            </feMerge>
        </filter>
        <linearGradient x1="100%" y1="50%" x2="0%" y2="50%" id="linearGradient-2">
            <stop stop-color="#50565B" offset="0%"></stop>
            <stop stop-color="#6E757C" offset="100%"></stop>
        </linearGradient>
        <filter x="-32.4%" y="-32.4%" width="164.8%" height="164.8%" filterUnits="objectBoundingBox" id="filter-3">
            <feOffset dx="0" dy="2" in="SourceAlpha" result="shadowOffsetOuter1"></feOffset>
            <feGaussianBlur stdDeviation="5" in="shadowOffsetOuter1" result="shadowBlurOuter1"></feGaussianBlur>
            <feColorMatrix values="0 0 0 0 0   0 0 0 0 0   0 0 0 0 0  0 0 0 0.5 0" type="matrix" in="shadowBlurOuter1" result="shadowMatrixOuter1"></feColorMatrix>
            <feMerge>
                <feMergeNode in="shadowMatrixOuter1"></feMergeNode>
                <feMergeNode in="SourceGraphic"></feMergeNode>
            </feMerge>
        </filter>
        <filter x="-32.4%" y="-32.4%" width="164.8%" height="164.8%" filterUnits="objectBoundingBox" id="filter-4">
            <feOffset dx="0" dy="2" in="SourceAlpha" result="shadowOffsetOuter1"></feOffset>
            <feGaussianBlur stdDeviation="5" in="shadowOffsetOuter1" result="shadowBlurOuter1"></feGaussianBlur>
            <feColorMatrix values="0 0 0 0 0   0 0 0 0 0   0 0 0 0 0  0 0 0 0.5 0" type="matrix" in="shadowBlurOuter1" result="shadowMatrixOuter1"></feColorMatrix>
            <feMerge>
                <feMergeNode in="shadowMatrixOuter1"></feMergeNode>
                <feMergeNode in="SourceGraphic"></feMergeNode>
            </feMerge>
        </filter>
        <filter x="-36.4%" y="-36.4%" width="172.7%" height="172.7%" filterUnits="objectBoundingBox" id="filter-5">
            <feOffset dx="0" dy="2" in="SourceAlpha" result="shadowOffsetOuter1"></feOffset>
            <feGaussianBlur stdDeviation="1" in="shadowOffsetOuter1" result="shadowBlurOuter1"></feGaussianBlur>
            <feColorMatrix values="0 0 0 0 0   0 0 0 0 0   0 0 0 0 0  0 0 0 0.5 0" type="matrix" in="shadowBlurOuter1" result="shadowMatrixOuter1"></feColorMatrix>
            <feMerge>
                <feMergeNode in="shadowMatrixOuter1"></feMergeNode>
                <feMergeNode in="SourceGraphic"></feMergeNode>
            </feMerge>
        </filter>
    </defs>
    <g id="Handover" stroke="none" stroke-width="1" fill="none" fill-rule="evenodd">
        <g id="Identities" transform="translate(-146.000000, -312.000000)">
            <g id="Channels-Copy" transform="translate(112.000000, 247.000000)">
                <g id="Identities-Illustration" transform="translate(40.000000, 72.000000)">
                    <g id="Dots" transform="translate(0.000000, 1.000000)" fill-rule="nonzero">
                        <circle id="Oval-Copy-15" fill="#373D42" cx="152.5" cy="77.5" r="3.5"></circle>
                        <circle id="Oval-Copy-16" fill="#373D42" cx="14.5" cy="10.5" r="3.5"></circle>
                        <circle id="Oval-Copy-17" fill="#BB8EFF" cx="16.5" cy="77.5" r="2.5"></circle>
                        <circle id="Oval-Copy-18" fill="#373D42" cx="163.5" cy="71.5" r="2.5"></circle>
                        <circle id="Oval-Copy-22" fill="#FFA768" cx="154" cy="89" r="2"></circle>
                        <circle id="Oval-Copy-19" fill="#D7306D" cx="161.5" cy="9.5" r="2.5"></circle>
                        <circle id="Oval-Copy-20" fill="#373D42" cx="2.5" cy="2.5" r="2.5"></circle>
                        <circle id="Oval-Copy-21" fill="#373D42" cx="77.5" cy="85.5" r="2.5"></circle>
                    </g>
                    <g id="Left-Card" filter="url(#filter-1)" opacity="0.5" transform="translate(48.500803, 45.500803) rotate(-20.000000) translate(-48.500803, -45.500803) translate(13.000803, 10.000803)" fill-rule="nonzero">
                        <rect id="Rectangle" fill="#373D42" x="0" y="0" width="71" height="71" rx="1"></rect>
                        <rect id="Rectangle" fill="url(#linearGradient-2)" x="8" y="8" width="47" height="9" rx="1"></rect>
                        <rect id="Rectangle-Copy" fill="#6E757C" x="8" y="21" width="24" height="6" rx="1"></rect>
                        <rect id="Rectangle-Copy-2" fill="#50565B" x="8" y="57" width="31" height="6" rx="1"></rect>
                    </g>
                    <rect id="Opacity-Correction" fill="#23292E" fill-rule="nonzero" transform="translate(114.500803, 45.500803) rotate(20.000000) translate(-114.500803, -45.500803) " x="79.0008031" y="10.0008031" width="71" height="71" rx="1"></rect>
                    <g id="Right-Card" filter="url(#filter-3)" opacity="0.5" transform="translate(114.500803, 45.500803) rotate(20.000000) translate(-114.500803, -45.500803) translate(79.000803, 10.000803)" fill-rule="nonzero">
                        <rect id="Rectangle" fill="#373D42" x="0" y="0" width="71" height="71" rx="1"></rect>
                        <rect id="Rectangle" fill="url(#linearGradient-2)" x="8" y="8" width="47" height="9" rx="1"></rect>
                        <rect id="Rectangle-Copy" fill="#6E757C" x="8" y="21" width="24" height="6"></rect>
                        <rect id="Rectangle-Copy-2" fill="#50565B" x="8" y="57" width="31" height="6"></rect>
                    </g>
                    <g id="Top-Card" filter="url(#filter-4)" transform="translate(46.000803, 6.000000)" fill-rule="nonzero">
                        <rect id="Rectangle" fill="#373D42" x="0" y="0" width="71" height="71" rx="1"></rect>
                        <rect id="Rectangle" fill="url(#linearGradient-2)" x="8" y="8" width="47" height="9" rx="1"></rect>
                        <rect id="Rectangle-Copy" fill="#6E757C" x="8" y="21" width="24" height="6" rx="1"></rect>
                        <rect id="Rectangle-Copy-2" fill="#50565B" x="8" y="57" width="31" height="6"></rect>
                    </g>
                    <g id="Icon" filter="url(#filter-5)" transform="translate(90.000000, 64.000000)">
                        <circle id="Oval" fill="#0F6FFF" fill-rule="nonzero" cx="11" cy="11" r="11"></circle>
                        <g id="wallet-(1)" transform="translate(5.000000, 5.000000)">
                            <rect id="_Transparent_Rectangle_" x="0" y="0" width="12" height="12"></rect>
                            <rect id="Rectangle" fill="#FFFFFF" x="8.25" y="6.375" width="1" height="1"></rect>
                            <path d="M10.5,3 L1.5,3 L1.5,1.875 L9.75,1.875 L9.75,1.125 L1.5,1.125 C1.08578644,1.125 0.75,1.46078644 0.75,1.875 L0.75,9.75 C0.75,10.1642136 1.08578644,10.5 1.5,10.5 L10.5,10.5 C10.9142136,10.5 11.25,10.1642136 11.25,9.75 L11.25,3.75 C11.25,3.33578644 10.9142136,3 10.5,3 Z M1.5,9.75 L1.5,3.75 L10.5,3.75 L10.5,4.875 L7.5,4.875 C7.08578644,4.875 6.75,5.21078644 6.75,5.625 L6.75,7.875 C6.75,8.28921356 7.08578644,8.625 7.5,8.625 L10.5,8.625 L10.5,9.75 L1.5,9.75 Z M10.5,5.625 L10.5,7.875 L7.5,7.875 L7.5,5.625 L10.5,5.625 Z" id="Shape" fill="#FFFFFF" fill-rule="nonzero"></path>
                        </g>
                    </g>
                </g>
            </g>
        </g>
    </g>
</svg>